<svg width="32" height="32" viewBox="0 0 32 32" fill="none" xmlns="http://www.w3.org/2000/svg">
<g clip-path="url(#clip0_6004_30949)">
<path d="M27.3125 18.875C24.6401 18.875 22.625 20.0844 22.625 21.6875C22.625 22.2582 22.8898 22.7751 23.3393 23.2091L18.0961 26.664C17.4694 26.4841 16.767 26.375 16 26.375C15.233 26.375 14.5306 26.4841 13.9039 26.6639L8.66063 23.2091C9.11019 22.7751 9.375 22.2582 9.375 21.6875C9.375 21.1168 9.11019 20.5999 8.66069 20.1659L13.9039 16.711C14.5306 16.8909 15.233 17 16 17C18.6724 17 20.6875 15.7906 20.6875 14.1875C20.6875 12.7784 19.1292 11.6748 16.9375 11.4282V7.625H25.3125C25.8648 7.625 26.3125 7.17728 26.3125 6.625V1C26.3125 0.447715 25.8648 0 25.3125 0H15.0625C15.0625 0.37275 15.0625 11.7066 15.0625 11.4282C12.8708 11.6748 11.3125 12.7784 11.3125 14.1875C11.3125 14.7582 11.5773 15.2751 12.0268 15.7091L6.78356 19.164C6.15694 18.9841 5.4545 18.875 4.6875 18.875C2.01506 18.875 0 20.0844 0 21.6875C0 23.2906 2.01506 24.5 4.6875 24.5C5.4545 24.5 6.15694 24.3909 6.78363 24.2111L12.0269 27.6659C11.5773 28.0999 11.3125 28.6168 11.3125 29.1875C11.3125 30.7906 13.3276 32 16 32C18.6724 32 20.6875 30.7906 20.6875 29.1875C20.6875 28.6168 20.4227 28.0999 19.9732 27.6659L25.2164 24.211C25.8431 24.3909 26.5455 24.5 27.3125 24.5C29.9849 24.5 32 23.2906 32 21.6875C32 20.0844 29.9849 18.875 27.3125 18.875Z" fill="#030E31"/>
</g>
<defs>
<clipPath id="clip0_6004_30949">
<rect width="32" height="32" fill="white"/>
</clipPath>
</defs>
</svg>
