<svg width="32" height="32" viewBox="0 0 32 32" fill="none" xmlns="http://www.w3.org/2000/svg">
<path fill-rule="evenodd" clip-rule="evenodd" d="M12.9444 2C11.9319 2 11.1111 2.85473 11.1111 3.90909C11.1111 4.96346 11.9319 5.81818 12.9444 5.81818H19.0556C20.068 5.81818 20.8889 4.96346 20.8889 3.90909C20.8889 2.85473 20.068 2 19.0556 2H12.9444ZM12.3334 8.36364C10.3083 8.36364 8.66669 6.65417 8.66669 4.54545V3.81818C8.66669 3.51694 8.43217 3.27273 8.14288 3.27273C6.40711 3.27273 5 4.73799 5 6.54548L5.00002 26.1818C5.00002 28.2906 6.64164 30 8.66669 30H23.3333C25.3584 30 27 28.2906 27 26.1818V6.55709C27 4.74322 25.5878 3.27284 23.8459 3.27298C23.5557 3.27301 23.3204 3.51806 23.3204 3.82034V4.58472C23.2997 6.67801 21.6643 8.36364 19.654 8.36364H12.3334ZM20.5309 13.8273C21.0082 14.3243 21.0082 15.1302 20.5309 15.6272L15.642 20.7181C15.1647 21.2151 14.3908 21.2151 13.9135 20.7181L11.4691 18.1727C10.9918 17.6757 10.9918 16.8698 11.4691 16.3728C11.9464 15.8758 12.7203 15.8758 13.1976 16.3728L14.7778 18.0182L18.8024 13.8273C19.2797 13.3303 20.0536 13.3303 20.5309 13.8273Z" fill="#030E31"/>
</svg>
