<svg width="32" height="32" viewBox="0 0 32 32" fill="none" xmlns="http://www.w3.org/2000/svg">
<path d="M21.184 9.57684C21.0632 9.57684 20.9399 9.58116 20.8159 9.58888C20.8515 9.93516 20.8698 10.2864 20.8698 10.6419C20.8698 15.5896 17.3384 19.7277 12.6638 20.6687C13.0652 22.1806 13.8663 23.5637 15.0103 24.6861C16.6683 26.3129 18.8609 27.2088 21.184 27.2088C22.355 27.2088 23.4851 26.9849 24.5514 26.5425L28.2721 30V23.6354C29.4037 22.1108 30 20.3047 30 18.3929C30 13.5317 26.0452 9.57684 21.184 9.57684ZM21.9848 22.4813H20.3442V18.456H21.9848V22.4813ZM21.1645 16.9557C20.7047 16.9557 20.3641 16.5798 20.3442 16.1354C20.3244 15.6923 20.7354 15.315 21.1645 15.315C21.6244 15.315 21.9649 15.6909 21.9848 16.1354C22.0047 16.5783 21.5936 16.9557 21.1645 16.9557Z" fill="#030E31"/>
<path d="M10.6419 2C5.87674 2 2 5.87674 2 10.6419C2 12.516 2.58455 14.2865 3.69373 15.781V22.0198L7.34111 18.6307C8.38641 19.0644 9.49416 19.2839 10.6419 19.2839C15.4071 19.2839 19.2839 15.4071 19.2839 10.6419C19.2839 5.87674 15.4071 2 10.6419 2ZM11.628 8.91917C11.6079 8.53182 11.2754 8.21037 10.8868 8.20255C10.503 8.1944 10.1727 8.47478 10.1199 8.85382C10.115 8.88877 10.1125 8.9247 10.1125 8.96062H8.47188C8.47188 8.84917 8.47965 8.73695 8.49496 8.62709C8.66269 7.42538 9.70711 6.53748 10.9199 6.5622C12.1709 6.58741 13.2016 7.5854 13.2664 8.83413C13.3009 9.4987 13.0679 10.1301 12.6104 10.612C12.3534 10.8827 12.037 11.0876 11.6911 11.2138V12.1899H10.0504V9.71887H10.8707C11.0805 9.71887 11.2758 9.63487 11.4206 9.48234C11.5653 9.32998 11.6389 9.12999 11.628 8.91917ZM10.8707 15.2604C10.4109 15.2604 10.0703 14.8845 10.0504 14.44C10.0306 13.997 10.4417 13.6197 10.8707 13.6197C11.3306 13.6197 11.6712 13.9956 11.6911 14.44C11.7109 14.883 11.2998 15.2604 10.8707 15.2604Z" fill="#030E31"/>
</svg>
