<svg width="32" height="32" viewBox="0 0 32 32" fill="none" xmlns="http://www.w3.org/2000/svg">
<path fill-rule="evenodd" clip-rule="evenodd" d="M25.8853 28.5536C25.3852 29.0537 24.7069 29.3346 23.9997 29.3346H7.99968C7.29244 29.3346 6.61416 29.0537 6.11406 28.5536C5.61397 28.0535 5.33302 27.3752 5.33302 26.668V5.33464C5.33302 4.62739 5.61397 3.94911 6.11406 3.44902C6.61416 2.94892 7.29244 2.66797 7.99968 2.66797H18.6663L26.6663 10.668V26.668C26.6663 27.3752 26.3854 28.0535 25.8853 28.5536ZM23.9997 12.0013L17.333 5.33464V12.0013H23.9997ZM13.333 9H9.33302V12.0013H13.333V9ZM22.9994 15.0013H8.99937V17.668H22.9994V15.0013ZM8.99937 20H22.9994V22.6667H8.99937V20Z" fill="#030E31"/>
</svg>
