<svg width="120" height="120" viewBox="0 0 120 120" fill="none" xmlns="http://www.w3.org/2000/svg">
<path fill-rule="evenodd" clip-rule="evenodd" d="M59.8346 0.625C59.8346 0.625 69.353 12.7598 91.5863 15.4541V42.7601C91.5863 56.5831 85.4364 65.6791 59.8335 80.1728C34.2306 65.6757 28.0818 56.5741 28.0818 42.7556V15.4496C50.3162 12.7598 59.8346 0.625 59.8346 0.625ZM48.0492 26.7606H37.7246V50.6234H43.2447V44.0439H48.0492C49.9361 44.0878 51.8111 43.7334 53.5524 43.0037C55.019 42.3828 56.2682 41.3388 57.1413 40.0046C58.0005 38.6328 58.4389 37.0384 58.402 35.4192C58.4654 33.8075 58.0346 32.215 57.1675 30.856C56.3005 29.4969 55.0389 28.4366 53.5524 27.8177C51.814 27.0768 49.9377 26.7164 48.0492 26.7606ZM47.7427 39.5446H43.2447V31.2599H47.7427C49.0898 31.1662 50.4273 31.546 51.525 32.334C51.9628 32.714 52.3074 33.19 52.5319 33.7251C52.7564 34.2602 52.8549 34.8399 52.8197 35.4192C52.8522 35.993 52.7523 36.5665 52.5278 37.0953C52.3032 37.6241 51.9601 38.0939 51.525 38.4682C50.4276 39.257 49.0901 39.6377 47.7427 39.5446ZM78.2506 38.2156C79.2202 37.7307 80.0325 36.98 80.5929 36.0507C81.1534 35.1214 81.4391 34.0518 81.4167 32.9662C81.4408 32.0748 81.2395 31.1918 80.8315 30.3994C80.4234 29.607 79.8219 28.9309 79.0829 28.4341C77.0761 27.1989 74.7372 26.6155 72.3867 26.764H60.7358V50.6234H73.0708C75.5539 50.7837 78.028 50.1962 80.1751 48.9363C80.9604 48.4097 81.5972 47.6893 82.024 46.8445C82.4507 45.9997 82.6532 45.059 82.6118 44.113C82.655 42.7732 82.2463 41.458 81.4517 40.3797C80.6374 39.3392 79.5171 38.5817 78.2495 38.2144L78.2506 38.2156ZM66.2221 30.92H71.7083C72.7872 30.8512 73.8632 31.0938 74.8087 31.6191C75.1531 31.8446 75.432 32.1571 75.6174 32.5251C75.8028 32.8931 75.8882 33.3036 75.8648 33.7152C75.8869 34.1289 75.8012 34.5414 75.616 34.9118C75.4309 35.2824 75.1527 35.5982 74.8087 35.8283C73.8674 36.3656 72.7894 36.6145 71.7083 36.5443H66.2221V30.92ZM72.6672 46.4652H66.2221V40.5666H72.6672C75.5972 40.5666 77.0623 41.5554 77.0623 43.5329C77.0908 43.9676 77.0032 44.4022 76.8085 44.7917C76.6137 45.1813 76.3188 45.5117 75.9542 45.7491C74.9449 46.2912 73.8042 46.5389 72.6615 46.464L72.6672 46.4652Z" fill="#030E31"/>
<path d="M63.2003 73.3096C63.2003 73.8485 63.0878 74.3626 62.8951 74.829C62.3486 76.0994 61.1344 77.0236 59.6875 77.1439H59.6713C59.5664 77.1515 59.4538 77.16 59.3498 77.16C59.3097 77.16 59.2611 77.1601 59.2211 77.1524C57.6854 77.1038 56.3835 76.1633 55.8045 74.829C55.6118 74.3626 55.4993 73.8485 55.4993 73.3096C55.4993 73.1331 55.5069 72.9643 55.5393 72.7955C55.7806 70.9069 57.3964 69.46 59.3498 69.46C61.3032 69.46 62.919 70.9069 63.1679 72.7955C63.1918 72.9643 63.2003 73.1331 63.2003 73.3096Z" fill="#FFD700"/>
<path d="M55.2093 72.7955H63.4893C63.7775 72.7955 64.012 73.0299 64.012 73.3181V81.5971C64.012 81.8853 63.7775 82.1197 63.4893 82.1197H55.2102C54.922 82.1197 54.6875 81.8853 54.6875 81.5971V73.3181C54.6875 73.0299 54.922 72.7955 55.2102 72.7955H55.2093Z" fill="#D7D7D7"/>
<path d="M64.012 75.3516V82.7626C64.012 83.0602 63.7792 83.293 63.4893 83.293H55.2102C54.9203 83.293 54.6875 83.0602 54.6875 82.7626V75.3516C54.6875 75.0626 54.9203 74.829 55.2102 74.829H63.4893C63.7784 74.829 64.012 75.0617 64.012 75.3516Z" fill="#E7E7E7"/>
<path d="M62.7416 91.4603H60.3303V92.2643H62.7416V91.4603Z" fill="#CCCCCC"/>
<path d="M63.144 90.6802V92.9064C63.144 93.1238 62.959 93.3079 62.7424 93.3079C62.5258 93.3079 62.3408 93.1229 62.3408 92.9064V90.6802C62.3408 90.4551 62.5173 90.2786 62.7424 90.2786C62.9675 90.2786 63.144 90.4551 63.144 90.6802Z" fill="#030E31"/>
<path d="M60.2817 80.8817V105.262C60.2817 105.43 60.2331 105.591 60.1367 105.719C60.0881 105.792 60.0242 105.864 59.944 105.912C59.8153 106.009 59.655 106.065 59.4776 106.065C59.4452 106.065 59.4137 106.065 59.3813 106.057C59.2611 106.041 59.14 106.001 59.0436 105.937C58.8185 105.792 58.6736 105.543 58.6736 105.262V80.8817C58.6736 80.8417 58.6736 80.7931 58.6898 80.753C58.7461 80.3667 59.076 80.0777 59.4776 80.0777C59.8792 80.0777 60.2092 80.3667 60.2655 80.753C60.2817 80.7931 60.2817 80.8417 60.2817 80.8817Z" fill="#CCCCCC"/>
<path d="M61.0858 91.4602V103.212C61.0858 103.807 60.7643 104.329 60.2818 104.603C60.049 104.739 59.7753 104.82 59.4777 104.82C59.1801 104.82 58.9073 104.74 58.6737 104.595C58.1911 104.321 57.8696 103.807 57.8696 103.212V91.4841C57.8696 90.889 58.1911 90.3748 58.6737 90.0935C58.8186 90.0048 58.9712 89.9485 59.1401 89.9084C59.2449 89.8922 59.3652 89.876 59.4777 89.876C59.6465 89.876 59.7992 89.8999 59.9518 89.9485C60.072 89.9809 60.1769 90.0287 60.2818 90.0935C60.4105 90.1574 60.5231 90.2461 60.6194 90.351C60.9008 90.6323 61.0773 91.0262 61.0858 91.4602Z" fill="#112152"/>
<path d="M69.3095 109.723L68.9471 110.446L68.3204 110.133L60.4352 106.162L59.9441 105.913L59.5186 105.696L59.4299 105.656L59.366 105.623L59.5186 105.326L59.7275 104.9L60.2817 105.181L68.682 109.41L69.3095 109.723Z" fill="#CCCCCC"/>
<path d="M64.0845 111.483L63.4169 111.933L63.1279 111.516L59.3813 106.057L59.2372 105.841L59.2134 105.808L59.4299 105.656L59.615 105.527L59.8801 105.35L60.1376 105.72L60.4352 106.162L63.7946 111.065L64.0845 111.483Z" fill="#CCCCCC"/>
<path d="M69.6147 110.004C69.6147 110.358 69.3171 110.655 68.9633 110.655C68.6495 110.655 68.3767 110.43 68.3204 110.133C68.3127 110.093 68.3042 110.053 68.3042 110.004C68.3042 109.739 68.4568 109.514 68.6819 109.409C68.7706 109.369 68.8669 109.345 68.9633 109.345C69.3171 109.345 69.6147 109.642 69.6147 110.004Z" fill="#112152"/>
<path d="M64.406 111.708C64.406 112.07 64.1084 112.36 63.7546 112.36C63.4007 112.36 63.0955 112.071 63.0955 111.708C63.0955 111.644 63.1031 111.572 63.1279 111.516C63.208 111.25 63.4578 111.058 63.7546 111.058C63.7708 111.058 63.7784 111.058 63.7946 111.065C64.1323 111.082 64.406 111.363 64.406 111.708Z" fill="#112152"/>
<path d="M50.5558 110.085C50.5558 110.134 50.5481 110.174 50.5396 110.214C50.4833 110.511 50.2181 110.736 49.9044 110.736C49.5428 110.736 49.2529 110.447 49.2529 110.085C49.2529 109.723 49.5428 109.434 49.9044 109.434C50.0007 109.434 50.097 109.457 50.178 109.49C50.4031 109.595 50.5558 109.82 50.5558 110.085Z" fill="#112152"/>
<path d="M60.2818 80.8818V90.6801C60.2818 91.0178 60.0729 91.3068 59.7753 91.4279C59.6867 91.4603 59.5826 91.4841 59.4778 91.4841C59.2927 91.4841 59.1162 91.4202 58.9798 91.3077C58.7948 91.1627 58.6746 90.9376 58.6746 90.681V80.8826C58.6746 80.8426 58.6746 80.794 58.6908 80.7539C58.747 80.3677 59.077 80.0786 59.4786 80.0786C59.8802 80.0786 60.2102 80.3677 60.2665 80.7539C60.2827 80.794 60.2826 80.8426 60.2826 80.8826L60.2818 80.8818Z" fill="#CCCCCC"/>
<path d="M61.3757 79.0332C61.3757 79.0332 61.3595 79.2259 61.3433 79.3385C61.3433 79.3709 61.3433 79.4024 61.3356 79.4271C61.3032 79.7247 61.2631 80.03 61.2231 80.3275C61.1429 80.9226 61.0542 81.5255 60.9656 82.1197C60.9016 82.5136 60.8368 82.8999 60.7729 83.2929C60.7652 83.3253 60.7652 83.3569 60.7567 83.3893C60.6603 83.9682 60.5555 84.5548 60.4352 85.1337C60.4114 85.2702 60.3551 85.6163 60.2826 85.9702C60.1939 86.3803 60.0814 86.7819 59.9612 86.8782C59.9612 86.8782 59.9535 86.8782 59.9535 86.8859C59.8972 86.9183 59.8409 86.9345 59.777 86.9422C59.5596 86.9822 59.3106 87.0223 59.1503 86.9183C59.1017 86.8944 59.054 86.8543 59.0216 86.7895C58.9005 86.5645 58.7802 86.2669 58.6762 85.9054C58.4511 85.19 58.2661 84.2496 58.1058 83.2929C58.0419 82.9067 57.9771 82.5051 57.9293 82.1197C57.7443 80.8254 57.6317 79.6761 57.6002 79.2745C57.5925 79.2183 57.584 79.162 57.584 79.1057C57.6002 79.0494 57.688 78.7681 58.0504 78.1977C58.348 77.7398 58.8783 77.5062 59.441 77.4746C59.5212 77.467 59.5937 77.467 59.6661 77.4823C60.1163 77.5386 60.5103 77.8276 60.7516 78.1977C60.9767 78.5353 61.3782 79.0332 61.3782 79.0332H61.3757Z" fill="#112152"/>
<path d="M60.8222 80.3733C61.5627 79.6328 61.5627 78.4322 60.8222 77.6916C60.0816 76.9511 58.881 76.9511 58.1404 77.6916C57.3999 78.4322 57.3999 79.6328 58.1404 80.3733C58.881 81.1138 60.0816 81.1138 60.8222 80.3733Z" fill="#112152"/>
<path d="M66.6075 117.655C66.6101 117.353 66.6118 117.033 66.5999 116.71L66.599 116.717C66.5973 116.636 66.593 116.555 66.5871 116.475C66.5854 116.435 66.5811 116.395 66.5794 116.355C66.5751 116.297 66.5692 116.237 66.5632 116.179C66.5504 116.052 66.5351 115.925 66.5146 115.799C66.5044 115.735 66.4924 115.673 66.4805 115.611C66.4541 115.486 66.4259 115.362 66.3901 115.242V115.237L66.3841 115.217C66.3679 115.163 66.35 115.113 66.3321 115.058C66.3117 114.999 66.2895 114.94 66.2656 114.882C66.2409 114.823 66.2153 114.765 66.1889 114.709C66.1607 114.652 66.13 114.596 66.1002 114.54C66.0857 114.513 66.0695 114.485 66.0516 114.457C66.0354 114.432 66.0175 114.405 66.0013 114.377C65.9655 114.321 65.9288 114.266 65.8888 114.214L65.887 114.212C65.847 114.158 65.8043 114.106 65.7583 114.056C65.7216 114.014 65.6841 113.974 65.6457 113.935C65.6415 113.931 65.6372 113.928 65.6313 113.923C65.6133 113.903 65.5954 113.885 65.575 113.869C65.5367 113.832 65.4967 113.798 65.4567 113.764L65.4565 113.764C65.3976 113.715 65.3379 113.669 65.2774 113.625C65.251 113.603 65.2228 113.582 65.1947 113.564C65.193 113.562 65.1904 113.562 65.1887 113.56C65.1367 113.522 65.083 113.483 65.0284 113.449C64.9705 113.411 64.9125 113.373 64.8519 113.339C64.8502 113.336 64.8477 113.336 64.846 113.334C64.8136 113.316 64.7837 113.296 64.7513 113.28C64.7394 113.271 64.7274 113.265 64.7155 113.259C64.7087 113.255 64.701 113.252 64.695 113.247C64.655 113.223 64.6132 113.201 64.5689 113.179C64.5066 113.145 64.4418 113.113 64.3779 113.083C64.3182 113.053 64.2576 113.026 64.1954 112.998C64.1212 112.966 64.0453 112.934 63.9686 112.902C63.9166 112.882 63.8629 112.862 63.8083 112.841C63.7563 112.824 63.7043 112.803 63.6497 112.785L63.6402 112.782C63.5912 112.764 63.5407 112.746 63.4894 112.731C63.411 112.704 63.3308 112.68 63.2507 112.658C63.2259 112.648 63.2004 112.642 63.1739 112.634C63.1663 112.633 63.1577 112.63 63.1501 112.628C63.098 112.614 63.046 112.598 62.9915 112.586L62.9779 112.582C62.93 112.57 62.8804 112.557 62.8329 112.546C62.7229 112.517 62.6103 112.494 62.4978 112.47C62.3997 112.449 62.3008 112.43 62.2028 112.413C62.0885 112.391 61.9743 112.371 61.8574 112.353C61.8455 112.35 61.8353 112.349 61.825 112.349C61.7287 112.333 61.6324 112.319 61.536 112.307C61.4576 112.295 61.3817 112.285 61.3049 112.277C61.0415 112.245 60.7789 112.217 60.5197 112.197C60.4332 112.189 60.3468 112.183 60.2618 112.177L60.2502 112.176C60.0816 112.163 59.9162 112.153 59.7517 112.143L59.7438 112.142C59.6627 112.135 59.5826 112.132 59.5024 112.128C59.4206 112.122 59.3362 112.118 59.2535 112.114H59.2398C59.0719 112.107 58.909 112.098 58.7462 112.09C58.4247 112.083 58.1195 112.066 57.8304 112.05C56.4389 111.962 54.6714 111.72 53.4581 110.668C53.0249 110.289 52.677 109.815 52.4281 109.268C52.307 109.027 52.2192 108.77 52.1467 108.505C52.0742 108.24 52.0256 107.966 52.0017 107.693L52.0011 107.686C51.9954 107.611 51.9897 107.538 51.9855 107.464C51.983 107.405 51.9813 107.347 51.9813 107.291C51.9796 107.272 51.9796 107.254 51.9796 107.236V107.214C51.9796 107.15 51.9796 107.086 51.9838 107.02C51.9838 106.974 51.9881 106.928 51.9898 106.883C51.9915 106.853 51.9941 106.823 51.9958 106.795C51.9958 106.784 51.9975 106.777 51.9975 106.767C51.9975 106.758 51.9992 106.752 51.9992 106.744V106.738C51.9992 106.732 52.0009 106.728 52.0009 106.722C52.0026 106.696 52.0043 106.67 52.0086 106.644C52.0145 106.596 52.0188 106.546 52.0265 106.495C52.0248 106.493 52.0265 106.489 52.0265 106.485C52.0265 106.481 52.0265 106.479 52.0282 106.475C52.0341 106.425 52.0401 106.374 52.0503 106.324C52.0503 106.315 52.0529 106.31 52.0546 106.302C52.0623 106.246 52.0725 106.188 52.0844 106.131C52.0938 106.073 52.1083 106.015 52.1203 105.957C52.1322 105.899 52.1458 105.838 52.162 105.78C52.1799 105.703 52.2004 105.626 52.2243 105.549C52.2268 105.537 52.2302 105.523 52.2345 105.511C52.2405 105.486 52.249 105.462 52.2567 105.438C52.2806 105.355 52.307 105.274 52.3368 105.191C52.353 105.127 52.3769 105.062 52.4093 104.998C52.4016 104.991 52.4093 104.982 52.4093 104.974C52.4136 104.966 52.4153 104.956 52.4195 104.948C52.4195 104.946 52.4212 104.944 52.4212 104.942C52.4552 104.853 52.492 104.766 52.5291 104.678L52.5381 104.657C52.5662 104.589 52.596 104.518 52.6301 104.45C52.6395 104.422 52.6523 104.396 52.666 104.37C52.6753 104.346 52.6856 104.324 52.6958 104.302C52.6975 104.297 52.7001 104.294 52.7018 104.29C52.712 104.271 52.7197 104.253 52.7299 104.235C52.7742 104.143 52.8203 104.048 52.8689 103.956L52.8868 103.92C52.9132 103.868 52.9413 103.818 52.9695 103.768L52.9695 103.768C52.9831 103.741 52.9976 103.715 53.0113 103.691C53.0249 103.666 53.0369 103.639 53.0531 103.615C53.1076 103.518 53.1639 103.42 53.2202 103.324C53.2926 103.205 53.3643 103.085 53.441 102.966C53.4905 102.882 53.545 102.798 53.6013 102.713C53.603 102.709 53.6056 102.707 53.6073 102.703C53.6073 102.703 53.6073 102.701 53.609 102.701C53.609 102.7 53.6115 102.697 53.6132 102.695C53.6132 102.692 53.6175 102.688 53.6175 102.688H53.6192C53.6218 102.686 53.6218 102.684 53.6235 102.68C53.626 102.678 53.6277 102.676 53.6277 102.672C53.6311 102.668 53.6337 102.666 53.6354 102.662C53.6371 102.66 53.6397 102.656 53.6414 102.654C53.6456 102.648 53.6473 102.644 53.6516 102.638C53.7019 102.562 53.7522 102.487 53.8042 102.411C53.9245 102.231 54.0515 102.052 54.182 101.873C54.3363 101.657 54.4974 101.442 54.6577 101.229C54.7745 101.074 54.8931 100.919 55.0116 100.767C55.1301 100.612 55.2486 100.46 55.3671 100.307C55.4268 100.233 55.4856 100.156 55.5436 100.082C55.8062 99.746 56.0654 99.4169 56.3127 99.0895C56.6103 98.7016 56.8934 98.3205 57.1543 97.9385C57.3282 97.6827 57.4953 97.4278 57.6479 97.1728C57.7247 97.0466 57.7972 96.9196 57.8671 96.7934C57.891 96.7533 57.9072 96.7209 57.931 96.6809C58.128 96.3176 58.307 95.9604 58.4673 95.6125C58.4733 95.6023 58.4767 95.5921 58.481 95.5844C58.5466 95.442 58.6089 95.2996 58.6694 95.1606C58.6959 95.0984 58.7214 95.0362 58.7479 94.9756C59.0054 94.3634 59.21 93.7726 59.3745 93.2064C59.5536 92.5857 59.6815 91.9957 59.7702 91.4313C59.8401 91.0518 59.8844 90.6903 59.9168 90.3408V90.3305C59.9288 90.2035 59.939 90.0773 59.9467 89.9528C60.0192 88.9246 59.9867 88.0464 59.9629 87.3395C59.9543 87.1784 59.9467 87.0258 59.9467 86.8893C59.9424 86.7913 59.9407 86.7026 59.9407 86.6122C59.9407 86.5219 59.9424 86.4375 59.9467 86.359C59.9552 86.1424 59.7779 85.9574 59.5613 85.9412C59.4752 85.9412 59.3925 85.9668 59.3242 86.0154C59.2202 86.0836 59.1477 86.1962 59.1435 86.3266C59.1375 86.4494 59.135 86.5798 59.1392 86.7222C59.1392 86.7862 59.1418 86.8527 59.1435 86.9209C59.152 87.0658 59.152 87.2099 59.1597 87.3711L59.1599 87.377C59.1846 88.059 59.2157 88.9189 59.1358 89.9119C59.1281 90.0705 59.1136 90.2308 59.0957 90.3979C59.0974 90.4004 59.0957 90.4022 59.0957 90.4022V90.4039C59.0676 90.6929 59.0258 90.9939 58.9755 91.3093C58.903 91.7595 58.799 92.2353 58.6703 92.7255C58.6353 92.8543 58.5995 92.983 58.5594 93.1152C58.5475 93.1536 58.5355 93.1936 58.5236 93.2337C58.371 93.7376 58.1843 94.2594 57.9532 94.8C57.9532 94.8017 57.9506 94.8059 57.9489 94.8076C57.9225 94.8724 57.8944 94.9347 57.8662 94.9986C57.8142 95.1189 57.7596 95.2433 57.7017 95.3678C57.561 95.6731 57.4024 95.9885 57.2319 96.3014L57.231 96.3029C57.181 96.3928 57.131 96.4827 57.0792 96.5726C57.069 96.5905 57.0588 96.6067 57.0468 96.6246C57.0085 96.6868 56.9684 96.7533 56.9283 96.8173C56.8942 96.8736 56.8584 96.9324 56.82 96.9904C56.7834 97.0492 56.7476 97.1055 56.7075 97.1634C56.6708 97.2214 56.6307 97.2803 56.5907 97.3382C56.5787 97.3561 56.5659 97.3766 56.5523 97.3945C56.502 97.4712 56.4483 97.5471 56.3937 97.6256C56.3792 97.646 56.363 97.6656 56.3494 97.6861C56.2692 97.8029 56.1848 97.9189 56.0961 98.0357C56.0262 98.1329 55.9554 98.2309 55.8813 98.3273C55.779 98.4637 55.6749 98.6018 55.5684 98.7408C55.478 98.861 55.3842 98.9812 55.2895 99.104C55.1651 99.2626 55.0406 99.422 54.9161 99.5823C54.7294 99.8236 54.5401 100.062 54.3533 100.305C54.2289 100.467 54.1044 100.63 53.9816 100.793C53.9773 100.8 53.9713 100.808 53.9671 100.814C53.8903 100.913 53.8128 101.018 53.736 101.12L53.7215 101.141C53.713 101.15 53.707 101.161 53.6994 101.171C53.6729 101.207 53.6473 101.243 53.6209 101.279C53.5501 101.373 53.4819 101.469 53.4137 101.564C53.2875 101.74 53.163 101.917 53.0462 102.096C53.0147 102.14 52.984 102.186 52.9541 102.232C52.9473 102.242 52.9397 102.252 52.9337 102.262C52.9252 102.274 52.9175 102.284 52.9115 102.296C52.8612 102.37 52.8109 102.447 52.7649 102.523C52.7623 102.525 52.7623 102.527 52.7606 102.529C52.6762 102.662 52.5943 102.797 52.5159 102.929C52.4843 102.983 52.4536 103.035 52.4238 103.087C52.3931 103.139 52.3633 103.192 52.3351 103.244C52.3309 103.25 52.3274 103.259 52.3232 103.265C52.3138 103.284 52.3036 103.301 52.2933 103.319C52.249 103.4 52.2047 103.481 52.1629 103.561C52.1527 103.583 52.1407 103.607 52.1288 103.629C52.0691 103.747 52.0086 103.866 51.9523 103.986C51.9523 103.988 51.9506 103.99 51.9506 103.992C51.9139 104.071 51.8781 104.149 51.844 104.227C51.8125 104.291 51.7877 104.356 51.7638 104.42C51.659 104.669 51.5626 104.918 51.4825 105.176L51.4802 105.183C51.4571 105.262 51.4342 105.339 51.4185 105.417C51.3943 105.504 51.3731 105.592 51.3521 105.679L51.3486 105.694C51.3367 105.748 51.3247 105.8 51.3128 105.854C51.2804 106.001 51.2565 106.15 51.2344 106.298C51.2241 106.373 51.2139 106.448 51.2062 106.524C51.1983 106.593 51.1926 106.664 51.187 106.733L51.1858 106.749C51.1815 106.82 51.1781 106.893 51.1738 106.965V107.026C51.1738 107.036 51.1721 107.044 51.1721 107.054C51.1704 107.102 51.1704 107.15 51.1704 107.201C51.1704 107.291 51.1721 107.384 51.1764 107.476V107.498C51.1806 107.586 51.1866 107.675 51.1943 107.765C51.2258 108.143 51.3068 108.512 51.4109 108.873C51.4919 109.131 51.5882 109.387 51.7084 109.629C51.9983 110.264 52.4161 110.828 52.932 111.27C53.0181 111.347 53.1068 111.419 53.1989 111.489C53.2833 111.554 53.3719 111.616 53.4623 111.674C53.5084 111.707 53.5544 111.736 53.603 111.765C53.6414 111.788 53.6789 111.811 53.7173 111.833C53.8221 111.895 53.9262 111.951 54.0327 112.006C54.089 112.032 54.1436 112.06 54.1999 112.084C54.2218 112.094 54.2438 112.104 54.2657 112.114L54.2664 112.114C54.2982 112.129 54.3285 112.142 54.3602 112.156L54.367 112.159L54.3774 112.163C54.4244 112.183 54.4729 112.203 54.5213 112.222C54.6236 112.263 54.7285 112.301 54.8325 112.337C54.9374 112.373 55.0414 112.407 55.148 112.437L55.3066 112.482C55.4029 112.507 55.5018 112.532 55.5999 112.556C55.6084 112.558 55.6187 112.56 55.6263 112.562C55.7107 112.582 55.7951 112.6 55.8796 112.616C55.8958 112.621 55.9137 112.622 55.9299 112.627C55.9964 112.64 56.062 112.652 56.1285 112.662C56.1481 112.668 56.1686 112.671 56.1865 112.673C56.2445 112.685 56.3033 112.693 56.3613 112.701C56.3715 112.702 56.3835 112.705 56.3937 112.707C56.4534 112.717 56.5156 112.726 56.5762 112.733C56.6785 112.748 56.7791 112.76 56.8797 112.772C56.9582 112.779 57.0383 112.788 57.1167 112.795C57.1952 112.804 57.2711 112.81 57.3495 112.816L57.3585 112.817C57.427 112.822 57.4948 112.828 57.5601 112.832C57.6343 112.839 57.7068 112.842 57.7793 112.847C58.0768 112.871 58.3821 112.879 58.7035 112.895L58.7477 112.897C58.997 112.908 59.2509 112.92 59.511 112.935C59.6483 112.941 59.7864 112.949 59.9271 112.959C59.9373 112.959 59.9492 112.961 59.9595 112.961C60.0882 112.969 60.2187 112.979 60.3491 112.991C60.4898 113.001 60.6305 113.015 60.7729 113.029C60.859 113.037 60.9477 113.045 61.0338 113.057L61.0756 113.063C61.0875 113.063 61.102 113.066 61.1139 113.067C61.1907 113.075 61.2683 113.084 61.345 113.096C61.3774 113.1 61.409 113.103 61.4414 113.107C61.4593 113.109 61.4797 113.113 61.4976 113.115C61.5036 113.115 61.5079 113.117 61.5138 113.117C61.5394 113.121 61.5658 113.125 61.594 113.129C61.6204 113.133 61.646 113.136 61.6724 113.141C61.6903 113.142 61.7108 113.147 61.7287 113.148C61.8216 113.162 61.9137 113.178 62.0041 113.194C62.2053 113.231 62.4023 113.273 62.5967 113.317C62.6632 113.335 62.7314 113.351 62.7979 113.369C62.9446 113.408 63.087 113.448 63.2277 113.494C63.3479 113.532 63.4664 113.574 63.5832 113.618C63.712 113.666 63.8381 113.721 63.9609 113.777C63.9891 113.789 64.0172 113.803 64.0436 113.815C64.0573 113.822 64.0692 113.83 64.0837 113.836C64.1059 113.848 64.128 113.858 64.1502 113.87C64.2082 113.898 64.2645 113.928 64.3207 113.96C64.3753 113.99 64.429 114.022 64.4836 114.056C64.5382 114.089 64.5902 114.123 64.6422 114.159C64.6942 114.193 64.7445 114.227 64.7948 114.267C64.8025 114.273 64.811 114.279 64.8187 114.283L64.8384 114.299C64.8696 114.324 64.9013 114.349 64.9329 114.374C64.9372 114.375 64.9389 114.38 64.9432 114.381C65.8191 115.098 65.8105 116.432 65.8028 117.621L65.8026 117.651V117.844C65.8007 118.371 65.7925 118.901 65.7798 119.432H66.585C66.5975 118.901 66.6056 118.37 66.6075 117.84V117.655Z" fill="#112152"/>
<path d="M59.6628 105.623L59.5187 105.696L59.2373 105.841L59.0438 105.937L52.4289 109.265L51.7127 109.626L50.5395 110.213L50.0816 110.446L49.7192 109.723L50.178 109.49L51.416 108.871L52.1476 108.501L58.6746 105.213L59.3013 104.9L59.5187 105.326L59.615 105.527L59.6628 105.623Z" fill="#CCCCCC"/>
<path d="M45.5558 86.3317H43.1445V87.1357H45.5558V86.3317Z" fill="#CCCCCC"/>
<path d="M45.9575 85.5439V87.7701C45.9575 87.9952 45.7801 88.1716 45.5559 88.1716C45.3316 88.1716 45.1543 87.9952 45.1543 87.7701V85.5439C45.1543 85.3188 45.3308 85.1423 45.5559 85.1423C45.781 85.1423 45.9575 85.3188 45.9575 85.5439Z" fill="#030E31"/>
<path d="M43.1034 74.1375V100.133C43.1034 100.398 42.9747 100.632 42.7735 100.784C42.7573 100.792 42.7496 100.801 42.7334 100.808C42.6047 100.888 42.4597 100.937 42.2994 100.937C42.1391 100.937 42.0018 100.897 41.8816 100.817C41.8654 100.809 41.8492 100.801 41.833 100.784C41.6318 100.64 41.4954 100.398 41.4954 100.133V74.1375C41.4954 73.695 41.8569 73.3334 42.2994 73.3334C42.4281 73.3334 42.5484 73.3658 42.6532 73.4221C42.8545 73.5185 43.0071 73.6958 43.071 73.92C43.0949 73.984 43.1034 74.065 43.1034 74.1375Z" fill="#CCCCCC"/>
<path d="M43.9076 86.3317V98.0757C43.9076 98.6708 43.5861 99.1926 43.1035 99.4663C42.8708 99.6027 42.5894 99.6837 42.2995 99.6837C42.0096 99.6837 41.7291 99.6036 41.4955 99.4663C41.0129 99.1926 40.6914 98.6708 40.6914 98.0757V86.3555C40.6914 85.7604 41.0129 85.2386 41.4955 84.9649C41.7282 84.8285 42.0096 84.7475 42.2995 84.7475C42.5894 84.7475 42.8699 84.8276 43.1035 84.9649C43.2238 85.0289 43.3363 85.1175 43.4327 85.2139C43.714 85.4953 43.8991 85.8892 43.9067 86.3308L43.9076 86.3317Z" fill="#112152"/>
<path d="M42.4692 100.494L42.3319 100.559L41.9064 100.752L41.834 100.784L39.1328 102.039L38.2725 102.432L33.4175 104.675L33.0475 104.851L32.5896 105.06L32.252 104.329L32.3807 104.272L32.7183 104.112L37.517 101.894L38.3611 101.507L41.4963 100.061L42.1315 99.7629L42.3319 100.198L42.4044 100.367L42.4692 100.494Z" fill="#CCCCCC"/>
<path d="M52.1228 104.595L51.7612 105.31L51.4875 105.173L51.1422 104.996L42.7744 100.784L42.7505 100.768L42.3318 100.559L42.1877 100.487L42.2756 100.318L42.3318 100.198L42.5493 99.7715L43.1035 100.053L51.4961 104.281L51.7698 104.417L52.1228 104.595Z" fill="#CCCCCC"/>
<path d="M42.8384 100.519L42.7505 100.768L42.7343 100.808L41.7453 103.63L41.4801 104.401L40.5482 107.046L40.3785 107.529L39.623 107.263L39.7919 106.772H39.8004L40.7724 103.983L41.0461 103.204L41.8817 100.817L41.9064 100.752L42.0829 100.246L42.2756 100.318L42.4044 100.367L42.8384 100.519Z" fill="#CCCCCC"/>
<path d="M52.4288 104.868C52.4288 104.908 52.4288 104.94 52.4126 104.973C52.4126 104.98 52.405 104.989 52.4126 104.996C52.3802 105.06 52.3563 105.125 52.3401 105.189C52.2276 105.39 52.0187 105.519 51.7774 105.519C51.6486 105.519 51.5199 105.479 51.4235 105.414C51.2786 105.318 51.1746 105.173 51.1422 104.996C51.1345 104.956 51.126 104.916 51.126 104.868C51.126 104.61 51.2786 104.385 51.496 104.281C51.5847 104.241 51.6725 104.217 51.7774 104.217C51.8013 104.217 51.826 104.217 51.8499 104.225C52.1798 104.257 52.4288 104.53 52.4288 104.868Z" fill="#112152"/>
<path d="M40.3871 107.923C40.098 108.14 39.6879 108.075 39.479 107.786C39.2616 107.489 39.3264 107.087 39.6154 106.87C39.6717 106.83 39.728 106.797 39.7919 106.773H39.7996C40.0571 106.693 40.3547 106.773 40.5312 107.015C40.5388 107.022 40.5474 107.031 40.5474 107.047C40.7324 107.328 40.6676 107.722 40.3862 107.923L40.3871 107.923Z" fill="#112152"/>
<path d="M43.1034 74.1375V85.5438C43.1034 85.9864 42.7419 86.3479 42.2994 86.3479C41.8569 86.3479 41.4954 85.9864 41.4954 85.5438V74.1375C41.4954 73.695 41.8569 73.3334 42.2994 73.3334C42.4281 73.3334 42.5484 73.3658 42.6532 73.4221C42.8545 73.5185 43.0071 73.6958 43.071 73.92C43.0949 73.984 43.1034 74.065 43.1034 74.1375Z" fill="#CCCCCC"/>
<path d="M52.3964 65.9548C51.4321 67.7956 49.6876 70.038 48.2483 71.2121C47.4528 71.8635 46.3913 72.3776 45.0816 72.3938C44.9852 72.3938 44.8966 72.3938 44.8002 72.3861C44.7039 72.3861 44.6075 72.3784 44.5112 72.3622C44.31 72.346 44.1011 72.3136 43.8922 72.2659C43.6509 72.2173 43.4019 72.1534 43.1444 72.057C42.5978 71.872 42.0266 71.5991 41.4238 71.2206C41.4238 71.2206 41.4238 71.2129 41.4161 71.2129C41.0307 70.9716 40.7246 70.6502 40.4833 70.2801C40.3545 70.0951 40.242 69.8862 40.1618 69.6773C40.1056 69.5648 40.0655 69.4522 40.0254 69.3397C40.0254 69.332 40.0178 69.3235 40.0178 69.3073C39.8489 68.817 39.7688 68.2867 39.7526 67.7717C39.7202 66.8313 39.97 66.0111 40.3639 65.2556C40.7979 64.4115 41.4169 63.6399 42.0198 62.8683C43.1214 61.4615 44.2383 59.9182 45.6367 58.7851C47.4136 57.3459 50.524 57.3143 52.3973 59.4203C54.2782 61.5339 53.3702 64.1063 52.3973 65.9556L52.3964 65.9548Z" fill="#FFD700"/>
<path d="M47.4597 68.6943C47.4597 66.764 45.8943 65.1985 43.9639 65.1985C42.0335 65.1985 40.2583 66.6633 40.2583 68.5937C40.2583 70.524 42.1708 72.462 44.102 72.462C46.0333 72.462 47.4597 70.6246 47.4597 68.6943Z" fill="white"/>
<path d="M47.0189 69.2663C47.0189 70.3918 46.48 71.3962 45.6521 72.0314C45.4756 72.1763 45.2821 72.2965 45.0817 72.3929C44.8165 72.5293 44.5189 72.6342 44.2137 72.6905C44.1012 72.7143 43.9886 72.7305 43.8761 72.7467H43.8684C43.7558 72.7544 43.6433 72.7629 43.5231 72.7629C43.4506 72.7629 43.3781 72.7629 43.3142 72.7552C43.0089 72.739 42.7113 72.6828 42.4376 72.5864C41.6336 72.3289 40.9506 71.7747 40.5328 71.0671C40.3802 70.8258 40.2677 70.5683 40.179 70.2878C40.1227 70.1027 40.0826 69.9177 40.0588 69.7174C40.0426 69.5971 40.0264 69.4684 40.0264 69.3396V69.2672C40.0264 68.7206 40.1551 68.198 40.3879 67.7401C40.943 66.5746 42.1401 65.7706 43.5231 65.7706C45.4526 65.7706 47.0198 67.3377 47.0198 69.2672L47.0189 69.2663Z" fill="#D8D6E6"/>
<path d="M46.0859 69.5153C46.0859 70.0294 45.941 70.5044 45.6997 70.9298C45.6997 71.0185 45.2256 71.5812 44.558 72.3128C44.5418 72.329 44.5341 72.3452 44.5094 72.3614C44.4932 72.3852 44.4693 72.41 44.4369 72.4415C44.373 72.5217 44.292 72.6103 44.2118 72.6905C44.043 72.8755 43.8665 73.0682 43.6892 73.2609C43.5689 73.3896 43.4479 73.5184 43.3276 73.6471V73.6548C43.239 73.7435 43.1511 73.8313 43.0701 73.92C42.8851 74.105 42.7163 74.2977 42.5398 74.475C42.1621 74.8689 41.8006 75.239 41.4945 75.5442C41.2694 75.7693 41.0681 75.962 40.9155 76.1069C40.2564 76.7336 38.2067 78.5744 37.8366 78.8805C37.4504 79.202 36.9686 79.7084 36.382 79.6283C36.3581 79.6283 36.3334 79.6206 36.3181 79.6121C36.2618 79.6044 36.2132 79.5959 36.1654 79.572C35.8355 79.4995 35.6104 79.3546 35.4577 79.1781C35.2565 78.9453 35.184 78.6639 35.1926 78.4303C35.1926 78.3579 35.2002 78.2939 35.2164 78.2376C35.3614 77.5624 37.1937 74.1945 38.7933 71.4047C38.9783 71.0748 39.171 70.7456 39.3483 70.4404C39.437 70.2878 39.5257 70.1428 39.6058 69.9979C39.7508 69.7489 39.8872 69.5238 40.016 69.3064C40.016 69.3013 40.0185 69.2959 40.0236 69.2902C40.1038 69.1615 40.1763 69.0327 40.2487 68.9125C40.2564 68.8963 40.2649 68.8801 40.2726 68.8724C40.7151 68.1494 41.0366 67.6506 41.1491 67.5304C41.688 66.9677 42.4435 66.6462 43.2151 66.6462C44.7985 66.6462 46.0851 67.9243 46.0851 69.5162L46.0859 69.5153Z" fill="#112152"/>
<path d="M37.0506 78.6307C37.083 78.8635 37.0506 79.1209 36.9304 79.3136C36.7777 79.5549 36.5527 79.6351 36.319 79.6112C36.2628 79.6035 36.2142 79.595 36.1664 79.5711C35.8364 79.4987 35.6113 79.3537 35.4587 79.1772C35.2575 78.9445 35.185 78.6631 35.1935 78.4295C35.2498 78.293 35.33 78.1643 35.4024 78.0756C35.6275 77.8429 35.949 77.7056 36.2466 77.7542C36.3514 77.7704 36.4393 77.8105 36.5279 77.8591C36.7931 78.0117 36.9943 78.3007 37.0506 78.6307Z" fill="#CCCCCC"/>
<path d="M44.5588 72.3128C44.5426 72.329 44.535 72.3452 44.5102 72.3614C44.494 72.3853 44.4702 72.41 44.4378 72.4415C44.3738 72.5217 44.2928 72.6104 44.2127 72.6905C44.0438 72.8755 43.8674 73.0682 43.69 73.2609C43.7864 73.1245 43.8426 72.9471 43.8665 72.7468H43.8742C43.8904 72.6504 43.898 72.5541 43.898 72.4492C43.898 72.3929 43.898 72.329 43.8904 72.2642C43.8665 71.6776 43.6491 71.01 43.3276 70.5598C42.8212 69.8521 42.0333 69.523 41.1568 69.5307C41.0042 69.5307 40.7228 69.5384 40.4252 69.6032C40.3365 69.6194 40.2487 69.6432 40.1601 69.6756C40.12 69.6833 40.0876 69.6995 40.0552 69.7157C39.8864 69.7797 39.7261 69.8683 39.605 69.9971C39.7499 69.7481 39.8864 69.523 40.0151 69.3056C40.0151 69.3005 40.0177 69.2951 40.0228 69.2894C40.1029 69.1607 40.1754 69.0319 40.2479 68.9117H40.2641C40.2717 68.9117 40.2718 68.904 40.2803 68.904C41.3094 68.43 42.5475 68.534 43.3268 69.1692C44.5563 70.1497 44.7737 71.2513 44.5563 72.3119L44.5588 72.3128Z" fill="#CCCCCC"/>
<path d="M43.3286 73.6472V73.6549C43.2399 73.7436 43.1521 73.8314 43.0711 73.9201C42.886 74.1051 42.7172 74.2978 42.5407 74.4751C42.6609 74.1613 42.701 73.7922 42.6533 73.4221C42.6294 73.1331 42.5569 72.8432 42.4358 72.5857C42.3719 72.4331 42.2909 72.2881 42.2031 72.1594C41.7529 71.5242 41.2541 71.1303 40.531 71.0663C40.4423 71.0501 40.3545 71.0501 40.2573 71.0501C40.0322 71.0501 39.2444 71.0425 38.7942 71.404C38.9792 71.074 39.1719 70.7449 39.3493 70.4397C39.5982 70.3595 39.8796 70.3032 40.1772 70.287C40.2735 70.2794 40.3784 70.2794 40.4824 70.2794C40.5626 70.2794 40.6513 70.287 40.7314 70.2956C41.318 70.3442 41.897 70.5283 42.2986 70.8344C42.7002 71.1559 42.9815 71.5898 43.1427 72.0562C43.1827 72.1449 43.2066 72.2327 43.2314 72.3291C43.2714 72.4655 43.2953 72.6104 43.3115 72.7554C43.3601 73.0606 43.3601 73.3667 43.3277 73.6472H43.3286Z" fill="#CCCCCC"/>
<path d="M48.1946 71.016C48.1281 71.016 48.0599 70.999 47.9977 70.964C47.805 70.8549 47.7359 70.6102 47.8442 70.4166C47.9226 70.2768 49.7243 66.9754 46.682 64.953C43.8359 63.0602 41.3658 65.3461 41.3419 65.3699C41.1816 65.5225 40.9276 65.5157 40.7732 65.3546C40.6206 65.1934 40.6274 64.9385 40.7886 64.7859C40.8176 64.7577 43.7549 62.0421 47.1263 64.2837C50.7952 66.723 48.5664 70.7704 48.5434 70.8114C48.4692 70.9418 48.3336 71.0152 48.1929 71.0152L48.1946 71.016Z" fill="white"/>
<path d="M46.4263 109.509C46.4502 109.447 46.4706 109.385 46.4885 109.321L46.4988 109.327C46.7 108.628 46.7 107.551 45.543 106.392C45.456 106.305 45.3682 106.222 45.2795 106.139C45.2471 106.108 45.2173 106.08 45.1849 106.05C45.0928 105.966 44.9981 105.884 44.9018 105.801C44.8489 105.757 44.7969 105.713 44.7449 105.668C44.6579 105.596 44.5701 105.525 44.4814 105.455C44.2146 105.244 43.9391 105.043 43.6578 104.846C43.4745 104.719 43.292 104.595 43.1053 104.475C42.9927 104.4 42.8785 104.325 42.7659 104.256C42.6551 104.186 42.5451 104.115 42.4325 104.047C42.4163 104.036 42.4027 104.029 42.3865 104.018C42.2859 103.956 42.1818 103.892 42.0812 103.832C41.9721 103.765 41.8638 103.699 41.7555 103.635C41.5202 103.491 41.2874 103.354 41.0546 103.209H41.047C40.4126 102.838 39.762 102.452 39.143 102.042C38.8779 101.873 38.6204 101.704 38.3714 101.512C38.2588 101.439 38.1463 101.359 38.032 101.27C37.9493 101.21 37.8692 101.148 37.7907 101.084C37.7166 101.026 37.6415 100.968 37.5716 100.907C37.5614 100.899 37.5494 100.889 37.5392 100.881C37.4693 100.82 37.3985 100.762 37.3303 100.7C37.2561 100.636 37.1854 100.57 37.1154 100.506L37.1112 100.501C37.0421 100.437 36.9765 100.374 36.9099 100.307C36.8417 100.241 36.7769 100.174 36.713 100.106C36.649 100.039 36.5868 99.9711 36.5245 99.9029C36.4921 99.8688 36.4623 99.8347 36.4342 99.8006C36.4038 99.7685 36.3771 99.7365 36.3492 99.7031L36.3438 99.6966C36.2773 99.6181 36.2151 99.5397 36.1528 99.4613L36.1528 99.4612C36.1025 99.399 36.0522 99.3342 36.0061 99.2702C35.8433 99.0554 35.6949 98.8346 35.5559 98.6095C35.5073 98.531 35.4613 98.4526 35.4153 98.3724C35.411 98.3665 35.4093 98.3605 35.405 98.3545C35.3326 98.2266 35.266 98.0979 35.2021 97.9691C35.168 97.9026 35.1373 97.8387 35.1075 97.7722C35.0751 97.7083 35.047 97.6418 35.0188 97.5754L35.0188 97.5752C34.9787 97.4866 34.9403 97.3962 34.9062 97.3058C34.8926 97.2717 34.8781 97.235 34.8662 97.1992C34.8235 97.0943 34.7852 96.9878 34.7493 96.8795C34.6683 96.6442 34.5984 96.4054 34.5362 96.1641C34.514 96.084 34.4936 96.0038 34.4757 95.9211C34.4356 95.7591 34.4015 95.5946 34.3716 95.4275C34.3529 95.3405 34.3367 95.2527 34.323 95.164C34.3188 95.1418 34.3145 95.1222 34.3128 95.1001C34.3015 95.0357 34.2918 94.969 34.2821 94.903L34.2804 94.8912C34.2685 94.8213 34.2608 94.7522 34.2506 94.6823C34.2318 94.5416 34.2156 94.3992 34.2019 94.2585C34.2002 94.2389 34.1977 94.2167 34.196 94.1946C34.1881 94.1315 34.1824 94.0661 34.1769 94.0027L34.1755 93.9874C34.1713 93.9354 34.1678 93.8825 34.1636 93.8305C34.1576 93.7717 34.1533 93.7154 34.1516 93.6574C34.1474 93.6054 34.1431 93.5508 34.1414 93.4988C34.1312 93.336 34.1235 93.1714 34.1175 93.0069C34.1175 92.9924 34.1158 92.9762 34.1158 92.9625C34.1124 92.8363 34.1082 92.7093 34.1082 92.5831C34.1039 92.4902 34.1039 92.3964 34.1039 92.3018C34.0954 91.4943 34.1235 90.6707 34.1619 89.8394C34.1713 89.6169 34.184 89.396 34.1977 89.1769C34.2037 89.0788 34.2122 88.9799 34.2182 88.8819C34.2284 88.7318 34.2403 88.5826 34.2523 88.4343C34.2685 88.2399 34.2838 88.0446 34.3043 87.8519C34.3085 87.7956 34.3145 87.7377 34.3205 87.6814L34.3205 87.6812C34.3341 87.5466 34.3478 87.4119 34.3622 87.2798C34.364 87.2636 34.3665 87.25 34.3682 87.2338C34.3827 87.1093 34.3963 86.9891 34.4125 86.8663C34.4262 86.7461 34.4424 86.6233 34.4586 86.5031C34.4705 86.4033 34.4842 86.3027 34.5004 86.2021C34.5217 86.041 34.5464 85.8824 34.5703 85.7238C34.5967 85.555 34.6232 85.3887 34.653 85.2216C34.6573 85.2003 34.6607 85.1798 34.6649 85.1576C34.6692 85.1193 34.6752 85.0826 34.6828 85.0468C34.6854 85.0391 34.6854 85.0306 34.6871 85.0229C34.7135 84.8686 34.7417 84.716 34.7715 84.5651C34.7852 84.4866 34.7996 84.4107 34.8176 84.334C34.8201 84.3255 34.8201 84.3195 34.8218 84.3118C34.8414 84.2053 34.8636 84.0987 34.8858 83.9947C34.8875 83.993 34.8875 83.9904 34.8875 83.9887C34.9096 83.8685 34.9361 83.75 34.9642 83.6314L34.9643 83.6309C34.9984 83.4801 35.0325 83.3294 35.0682 83.1813C35.0682 83.177 35.0699 83.1753 35.0699 83.171C35.0716 83.1548 35.0759 83.1412 35.0819 83.125C35.0887 83.0994 35.0947 83.0713 35.1023 83.0448C35.1365 82.8888 35.1765 82.7336 35.2166 82.5793C35.2209 82.5648 35.2243 82.5495 35.2285 82.535C35.2354 82.5085 35.243 82.483 35.249 82.4565C35.2865 82.3056 35.3274 82.1573 35.3692 82.0106C35.3829 81.956 35.3991 81.9023 35.4153 81.8477L35.4218 81.8249C35.4682 81.6639 35.5139 81.5051 35.5619 81.3456C35.5679 81.3276 35.5721 81.3114 35.5781 81.2935C35.6327 81.1171 35.689 80.9423 35.7469 80.7692C35.787 80.6421 35.8314 80.516 35.8757 80.3915C35.9695 80.1169 36.0684 79.8458 36.1707 79.5764C36.2594 79.3112 36.3634 79.046 36.476 78.7809C36.5646 78.572 36.4683 78.3392 36.2594 78.2505C36.059 78.1695 35.8262 78.2659 35.7376 78.4671C35.6412 78.7007 35.5449 78.9412 35.4647 79.1824C35.3922 79.3658 35.324 79.5499 35.2558 79.735C35.2396 79.7793 35.2234 79.8236 35.2072 79.8697C35.1671 79.9797 35.1262 80.0922 35.0904 80.2048C35.058 80.2934 35.0282 80.3812 35 80.4699C34.948 80.6268 34.896 80.7828 34.8474 80.9397C34.8355 80.9798 34.821 81.0199 34.809 81.0599C34.7604 81.2125 34.7144 81.3652 34.67 81.5195C34.6683 81.5272 34.6658 81.5357 34.6641 81.5434C34.6385 81.632 34.6138 81.7182 34.5899 81.8068C34.566 81.8938 34.5413 81.9816 34.5174 82.0703C34.5132 82.0822 34.5098 82.0967 34.5055 82.1104C34.5038 82.118 34.5012 82.1249 34.4995 82.1325C34.4654 82.2613 34.4313 82.3943 34.3989 82.5264C34.3767 82.6049 34.3588 82.6833 34.3384 82.7618C34.3367 82.7737 34.3324 82.7856 34.3307 82.7976C34.3051 82.9024 34.2804 83.0065 34.2565 83.113C34.2548 83.1233 34.2506 83.1352 34.2488 83.1454C34.2333 83.2012 34.2216 83.2577 34.2101 83.3136L34.2088 83.3202C34.2062 83.3262 34.2062 83.3322 34.2045 83.3381C34.1806 83.4405 34.1585 83.5394 34.1363 83.6417C34.1346 83.6536 34.1303 83.6681 34.1286 83.68C34.0945 83.8446 34.0604 84.0091 34.028 84.1737C34.0246 84.1856 34.022 84.1976 34.0203 84.2095C33.982 84.3997 33.9462 84.5932 33.912 84.7876C33.9044 84.826 33.8959 84.8635 33.8899 84.9018C33.8532 85.115 33.8174 85.3299 33.7833 85.5464C33.7475 85.7732 33.7151 86 33.681 86.2294V86.2354C33.6528 86.4442 33.6273 86.6531 33.6008 86.8637C33.5966 86.9021 33.5906 86.9396 33.5889 86.978C33.5855 87.0181 33.5795 87.0607 33.5753 87.1008C33.5531 87.279 33.5352 87.458 33.5173 87.6388C33.4934 87.8758 33.4712 88.1128 33.4533 88.3541C33.4354 88.5732 33.4175 88.7966 33.403 89.0192C33.3988 89.0771 33.3971 89.136 33.3928 89.1939C33.3793 89.3962 33.3691 89.5993 33.359 89.8016L33.3587 89.8087C33.3169 90.7363 33.2871 91.6563 33.3007 92.5584L33.3067 92.8653C33.3084 92.9174 33.3109 92.9694 33.3126 93.0197C33.3126 93.0435 33.3126 93.0657 33.3144 93.0879C33.3144 93.0998 33.316 93.1143 33.316 93.1262C33.3203 93.2047 33.322 93.2806 33.3263 93.359C33.3322 93.498 33.3399 93.6361 33.3502 93.7751V93.7768C33.3519 93.799 33.3544 93.8186 33.3561 93.8407C33.3647 93.9473 33.3723 94.0539 33.3826 94.1605C33.3826 94.1673 33.3826 94.1707 33.3843 94.175C33.3962 94.3071 33.4107 94.4384 33.4243 94.5706C33.4388 94.6951 33.455 94.8196 33.4729 94.9423C33.4866 95.0361 33.4985 95.1291 33.5147 95.2211C33.5309 95.3141 33.5471 95.4062 33.5633 95.4965C33.5957 95.6773 33.6324 95.8563 33.6742 96.0328C33.6742 96.0345 33.6742 96.0388 33.6759 96.0405C33.6997 96.1488 33.7262 96.2571 33.7543 96.3636L33.7546 96.3652C33.7562 96.3742 33.758 96.3838 33.762 96.3935C33.7918 96.5137 33.8259 96.6305 33.86 96.749C33.8882 96.8479 33.9197 96.9443 33.9521 97.0406C33.97 97.0986 33.9896 97.1549 34.0101 97.2112C34.0365 97.2913 34.0647 97.3697 34.0945 97.4482C34.1525 97.6025 34.2147 97.7551 34.2812 97.906C34.2812 97.9078 34.283 97.9103 34.283 97.912L34.283 97.9121C34.3111 97.9743 34.3392 98.0365 34.3691 98.0987C34.4015 98.1695 34.4373 98.242 34.4714 98.3119C34.5021 98.3741 34.5336 98.4364 34.566 98.4986C34.5677 98.5003 34.5677 98.5029 34.5677 98.5046C34.6283 98.6171 34.6905 98.7271 34.7528 98.838L34.7529 98.8382C34.7912 98.9046 34.8295 98.971 34.8696 99.0349C34.9276 99.1313 34.9898 99.2251 35.052 99.3197C35.0759 99.3555 35.0998 99.3922 35.1262 99.428C35.1706 99.4928 35.2149 99.5567 35.2609 99.619C35.2848 99.6505 35.3095 99.6846 35.3334 99.717C35.336 99.7187 35.3377 99.7213 35.3377 99.723L35.3483 99.7369C35.4154 99.8251 35.482 99.9125 35.5508 99.9984C35.625 100.092 35.7035 100.185 35.7836 100.277C35.7913 100.287 35.7998 100.295 35.8075 100.305L35.9524 100.468C36.0667 100.594 36.1852 100.721 36.3097 100.843C36.354 100.889 36.3984 100.934 36.4444 100.975C36.4785 101.01 36.5126 101.041 36.5467 101.074C36.6073 101.13 36.6678 101.188 36.7317 101.244C36.7876 101.295 36.8435 101.344 36.9006 101.394L36.9202 101.411C37.0165 101.493 37.1146 101.576 37.2152 101.656C37.3157 101.738 37.4179 101.816 37.5201 101.894L37.5204 101.895L37.5366 101.911C37.7771 102.095 38.0269 102.271 38.2776 102.433C38.4686 102.563 38.663 102.692 38.8582 102.816C39.0304 102.927 39.2052 103.035 39.3799 103.144L39.3801 103.144C39.7535 103.373 40.1287 103.598 40.5004 103.821C40.5473 103.849 40.5934 103.877 40.6394 103.905C40.6872 103.929 40.7272 103.961 40.7758 103.985C41.0086 104.122 41.2499 104.267 41.4827 104.403C41.6148 104.484 41.7479 104.564 41.88 104.644C42.0608 104.755 42.2398 104.868 42.4163 104.982C42.5707 105.08 42.7233 105.181 42.8742 105.283C43.0243 105.385 43.1752 105.489 43.3218 105.594C43.4685 105.696 43.6151 105.805 43.7575 105.916C43.8999 106.024 44.0406 106.135 44.177 106.249C44.2452 106.305 44.3135 106.364 44.3817 106.422C44.4277 106.462 44.4763 106.504 44.5224 106.547C44.5982 106.612 44.6724 106.681 44.7449 106.751C44.8191 106.819 44.8916 106.888 44.9615 106.96C45.6862 107.675 45.9275 108.374 45.7186 109.097C45.7042 109.147 45.6863 109.197 45.6685 109.247L45.6683 109.248C45.6521 109.294 45.6325 109.34 45.612 109.384C45.5899 109.434 45.5643 109.484 45.5379 109.532C45.5336 109.541 45.5302 109.551 45.5259 109.559C45.5157 109.578 45.5055 109.595 45.4935 109.613C45.4918 109.615 45.4892 109.619 45.4875 109.621C45.4739 109.645 45.462 109.67 45.4458 109.694C45.4159 109.744 45.3835 109.792 45.3494 109.84C45.317 109.888 45.2812 109.937 45.2428 109.983C45.1789 110.065 45.1081 110.15 45.0339 110.23C44.9998 110.267 44.9657 110.305 44.9274 110.341C44.8873 110.383 44.8472 110.423 44.8029 110.463C44.7475 110.516 44.6899 110.568 44.6306 110.622L44.6221 110.63C44.5837 110.661 44.5437 110.695 44.5036 110.728C44.4473 110.776 44.3885 110.822 44.3305 110.867C44.2802 110.907 44.2265 110.947 44.1719 110.985C44.1276 111.019 44.0815 111.051 44.0355 111.083C43.9434 111.15 43.8471 111.214 43.7507 111.274C43.7047 111.304 43.6569 111.335 43.6083 111.365C43.5708 111.387 43.5324 111.411 43.4941 111.433C43.4378 111.467 43.379 111.501 43.321 111.534C43.2838 111.555 43.2449 111.576 43.2076 111.596L43.2042 111.597C43.1419 111.632 43.078 111.666 43.0157 111.698C42.9228 111.748 42.829 111.794 42.7344 111.839C42.6858 111.863 42.6363 111.887 42.5877 111.909C42.4027 111.995 42.2177 112.073 42.0352 112.146L42.0207 112.151C41.9651 112.173 41.9101 112.195 41.8544 112.214C41.7342 112.258 41.6157 112.3 41.4972 112.338C41.3804 112.379 41.2661 112.413 41.1536 112.443C41.0973 112.458 41.0436 112.473 40.989 112.488H40.9847C40.9847 112.488 40.9822 112.489 40.9805 112.489C40.9242 112.503 40.8679 112.517 40.8134 112.529C40.2583 112.657 39.6802 112.746 39.1098 112.842C37.7345 113.067 36.3199 113.301 35.0427 113.975C34.9838 114.008 34.9258 114.039 34.8696 114.072C34.8355 114.09 34.8014 114.11 34.769 114.132C34.7366 114.15 34.7042 114.17 34.6743 114.19C34.6342 114.215 34.5959 114.241 34.5575 114.267C34.5067 114.301 34.4606 114.333 34.4124 114.368L34.4066 114.372C34.3478 114.415 34.2898 114.46 34.2335 114.504C34.1713 114.554 34.1124 114.605 34.0544 114.655C33.9317 114.763 33.8157 114.876 33.7049 114.993C33.6588 115.041 33.6145 115.089 33.5727 115.139C33.5147 115.206 33.4584 115.272 33.4039 115.34C33.3715 115.382 33.3391 115.423 33.3092 115.465C33.2606 115.529 33.2146 115.594 33.1703 115.658C33.1259 115.722 33.0816 115.786 33.0415 115.852C33.0151 115.892 32.9886 115.935 32.9648 115.975C32.9588 115.987 32.9528 115.997 32.9469 116.009C32.9272 116.04 32.9068 116.075 32.8889 116.107C32.8573 116.163 32.8266 116.22 32.7968 116.276C32.7704 116.324 32.7439 116.374 32.7201 116.424C32.6672 116.531 32.6177 116.637 32.5691 116.746C32.5495 116.79 32.5316 116.834 32.5112 116.879C32.5069 116.888 32.5035 116.898 32.4992 116.908C32.4574 117.011 32.4165 117.113 32.3807 117.215C32.3688 117.244 32.3585 117.272 32.3483 117.302L32.3377 117.333C32.3131 117.405 32.2887 117.476 32.2656 117.549C32.2349 117.639 32.2093 117.73 32.1829 117.818C32.3064 118.3 32.7759 118.097 32.9952 117.935C33.4821 116.341 34.2714 115.289 35.4119 114.684C35.5321 114.62 35.6549 114.562 35.7793 114.507C35.8165 114.489 35.8543 114.473 35.8916 114.457L35.9055 114.451C35.9673 114.425 36.029 114.401 36.0922 114.377L36.1068 114.371C36.2312 114.322 36.3557 114.279 36.4819 114.236C36.5369 114.217 36.5901 114.201 36.644 114.183L36.6729 114.174C36.7914 114.138 36.9082 114.104 37.0285 114.072C37.2374 114.015 37.4505 113.965 37.6654 113.919C37.6714 113.917 37.6773 113.917 37.6833 113.915C37.8018 113.888 37.9229 113.865 38.0431 113.842C38.1395 113.822 38.2384 113.804 38.3364 113.788C38.4735 113.762 38.6097 113.74 38.746 113.718L38.7465 113.718C38.9111 113.69 39.0757 113.664 39.2385 113.638C39.8166 113.541 40.4118 113.445 40.9898 113.316C41.0316 113.306 41.076 113.296 41.1203 113.284C41.1621 113.274 41.2081 113.262 41.2525 113.25C41.2968 113.238 41.3428 113.226 41.3872 113.214C41.4341 113.2 41.4801 113.186 41.5262 113.171C41.6387 113.139 41.7547 113.101 41.8715 113.061C41.9687 113.028 42.065 112.994 42.1631 112.958C42.1631 112.958 42.1631 112.957 42.1648 112.957C42.2671 112.918 42.372 112.878 42.476 112.834C42.5604 112.8 42.6465 112.764 42.7309 112.725C42.962 112.625 43.1948 112.512 43.4259 112.392H43.4276C43.5205 112.343 43.6109 112.293 43.703 112.241C43.7831 112.197 43.8633 112.148 43.9417 112.102C43.946 112.101 43.9477 112.098 43.9519 112.096C43.9536 112.095 43.9579 112.092 43.9596 112.09C44.0406 112.042 44.1165 111.994 44.1949 111.945C44.2794 111.891 44.3621 111.837 44.4422 111.782C44.6025 111.67 44.7611 111.553 44.912 111.433C44.9862 111.372 45.0604 111.31 45.1329 111.248C45.2053 111.186 45.2735 111.123 45.3417 111.059C45.3955 111.007 45.45 110.955 45.502 110.901C45.5549 110.849 45.6044 110.795 45.653 110.741C45.7016 110.689 45.7476 110.635 45.7919 110.58C45.7996 110.572 45.8081 110.564 45.8141 110.554C45.8542 110.505 45.8926 110.455 45.9284 110.407C46.0111 110.296 46.0878 110.184 46.1577 110.07C46.1594 110.065 46.162 110.062 46.1637 110.058C46.1952 110.004 46.2276 109.948 46.2558 109.893C46.2635 109.879 46.272 109.863 46.2797 109.847C46.3001 109.809 46.318 109.769 46.3359 109.73C46.3445 109.712 46.3547 109.693 46.3624 109.672C46.3845 109.618 46.4058 109.564 46.4263 109.509Z" fill="#112152"/>
<path d="M73.8568 86.3317H76.2681V87.1357H73.8568V86.3317Z" fill="#CCCCCC"/>
<path d="M73.4551 85.5438V87.77C73.4551 87.9951 73.6325 88.1716 73.8567 88.1716C74.081 88.1716 74.2583 87.9951 74.2583 87.77V85.5438C74.2583 85.3187 74.0818 85.1422 73.8567 85.1422C73.6316 85.1422 73.4551 85.3187 73.4551 85.5438Z" fill="#030E31"/>
<path d="M76.3092 74.1375V100.133C76.3092 100.398 76.4379 100.632 76.6391 100.784C76.6553 100.792 76.663 100.801 76.6792 100.808C76.8079 100.888 76.9529 100.937 77.1132 100.937C77.2735 100.937 77.4108 100.897 77.531 100.817C77.5472 100.809 77.5634 100.801 77.5796 100.784C77.7808 100.64 77.9172 100.398 77.9172 100.133V74.1375C77.9172 73.695 77.5557 73.3334 77.1132 73.3334C76.9844 73.3334 76.8642 73.3658 76.7593 73.4221C76.5581 73.5185 76.4055 73.6958 76.3416 73.92C76.3177 73.984 76.3092 74.065 76.3092 74.1375Z" fill="#CCCCCC"/>
<path d="M75.505 86.3317V98.0757C75.505 98.6708 75.8265 99.1926 76.3091 99.4663C76.5418 99.6027 76.8232 99.6837 77.1131 99.6837C77.403 99.6837 77.6835 99.6036 77.9171 99.4663C78.3997 99.1926 78.7212 98.6708 78.7212 98.0757V86.3555C78.7212 85.7604 78.3997 85.2386 77.9171 84.9649C77.6844 84.8285 77.403 84.7475 77.1131 84.7475C76.8232 84.7475 76.5427 84.8276 76.3091 84.9649C76.1888 85.0289 76.0763 85.1175 75.9799 85.2139C75.6986 85.4953 75.5135 85.8892 75.5059 86.3308L75.505 86.3317Z" fill="#112152"/>
<path d="M76.9434 100.494L77.0807 100.559L77.5062 100.752L77.5786 100.784L80.2798 102.039L81.1401 102.432L85.9951 104.675L86.3651 104.851L86.823 105.06L87.1606 104.329L87.0319 104.272L86.6943 104.112L81.8956 101.894L81.0514 101.507L77.9163 100.061L77.2811 99.7629L77.0807 100.198L77.0082 100.367L76.9434 100.494Z" fill="#CCCCCC"/>
<path d="M67.2898 104.595L67.6514 105.31L67.9251 105.173L68.2704 104.996L76.6382 100.784L76.6621 100.768L77.0808 100.559L77.2249 100.487L77.137 100.318L77.0808 100.198L76.8633 99.7715L76.3091 100.053L67.9165 104.281L67.6428 104.417L67.2898 104.595Z" fill="#CCCCCC"/>
<path d="M76.5742 100.519L76.6621 100.768L76.6783 100.808L77.6673 103.63L77.9325 104.401L78.8644 107.046L79.0341 107.529L79.7896 107.263L79.6207 106.772H79.6122L78.6402 103.983L78.3665 103.204L77.5309 100.817L77.5062 100.752L77.3297 100.245L77.137 100.318L77.0082 100.367L76.5742 100.519Z" fill="#CCCCCC"/>
<path d="M66.9838 104.868C66.9838 104.908 66.9838 104.94 67 104.973C67 104.98 67.0076 104.989 67 104.996C67.0324 105.06 67.0563 105.125 67.0725 105.189C67.185 105.39 67.3939 105.519 67.6352 105.519C67.7639 105.519 67.8927 105.479 67.989 105.414C68.134 105.318 68.238 105.173 68.2704 104.996C68.2781 104.956 68.2866 104.916 68.2866 104.868C68.2866 104.61 68.134 104.385 67.9166 104.281C67.8279 104.241 67.7401 104.217 67.6352 104.217C67.6113 104.217 67.5866 104.217 67.5627 104.225C67.2328 104.257 66.9838 104.53 66.9838 104.868Z" fill="#112152"/>
<path d="M79.0255 107.923C79.3146 108.14 79.7247 108.075 79.9336 107.786C80.151 107.489 80.0862 107.087 79.7972 106.87C79.7409 106.83 79.6846 106.797 79.6207 106.773H79.613C79.3555 106.693 79.0579 106.773 78.8814 107.015C78.8738 107.022 78.8652 107.031 78.8652 107.047C78.6802 107.328 78.745 107.722 79.0264 107.923L79.0255 107.923Z" fill="#112152"/>
<path d="M76.3092 74.1375V85.5438C76.3092 85.9864 76.6707 86.3479 77.1132 86.3479C77.5557 86.3479 77.9172 85.9864 77.9172 85.5438V74.1375C77.9172 73.695 77.5557 73.3334 77.1132 73.3334C76.9844 73.3334 76.8642 73.3658 76.7593 73.4221C76.5581 73.5185 76.4055 73.6958 76.3416 73.92C76.3177 73.984 76.3092 74.065 76.3092 74.1375Z" fill="#CCCCCC"/>
<path d="M67.0162 65.9548C67.9805 67.7956 69.725 70.038 71.1643 71.2121C71.9598 71.8635 73.0213 72.3776 74.331 72.3938C74.4273 72.3938 74.516 72.3938 74.6124 72.3861C74.7087 72.3861 74.8051 72.3784 74.9014 72.3622C75.1026 72.346 75.3115 72.3136 75.5204 72.2659C75.7617 72.2173 76.0107 72.1534 76.2682 72.057C76.8147 71.872 77.386 71.5991 77.9888 71.2206C77.9888 71.2206 77.9888 71.2129 77.9965 71.2129C78.3819 70.9716 78.688 70.6502 78.9293 70.2801C79.0581 70.0951 79.1706 69.8862 79.2508 69.6773C79.307 69.5648 79.3471 69.4522 79.3872 69.3397C79.3872 69.332 79.3948 69.3235 79.3948 69.3073C79.5637 68.817 79.6438 68.2867 79.66 67.7717C79.6924 66.8313 79.4426 66.0111 79.0487 65.2556C78.6147 64.4115 77.9957 63.6399 77.3928 62.8683C76.2912 61.4615 75.1743 59.9182 73.7759 58.7851C71.999 57.3459 68.8886 57.3143 67.0153 59.4203C65.1344 61.5339 66.0424 64.1063 67.0153 65.9556L67.0162 65.9548Z" fill="#FFD700"/>
<path d="M71.9531 68.6943C71.9531 66.764 73.5186 65.1985 75.449 65.1985C77.3793 65.1985 79.1545 66.6633 79.1545 68.5937C79.1545 70.524 77.2421 72.462 75.3108 72.462C73.3796 72.462 71.9531 70.6246 71.9531 68.6943Z" fill="white"/>
<path d="M72.3939 69.2663C72.3939 70.3918 72.9328 71.3962 73.7607 72.0314C73.9372 72.1763 74.1308 72.2965 74.3312 72.3929C74.5963 72.5293 74.8939 72.6342 75.1991 72.6905C75.3117 72.7143 75.4242 72.7305 75.5368 72.7467H75.5445C75.657 72.7544 75.7696 72.7629 75.8898 72.7629C75.9623 72.7629 76.0347 72.7629 76.0987 72.7552C76.4039 72.739 76.7015 72.6828 76.9752 72.5864C77.7792 72.3289 78.4622 71.7747 78.88 71.0671C79.0326 70.8258 79.1452 70.5683 79.2339 70.2878C79.2901 70.1027 79.3302 69.9177 79.3541 69.7174C79.3703 69.5971 79.3865 69.4684 79.3865 69.3396V69.2672C79.3865 68.7206 79.2577 68.198 79.025 67.7401C78.4699 66.5746 77.2728 65.7706 75.8898 65.7706C73.9602 65.7706 72.3931 67.3377 72.3931 69.2672L72.3939 69.2663Z" fill="#D8D6E6"/>
<path d="M73.3267 69.5153C73.3267 70.0294 73.4716 70.5044 73.7129 70.9298C73.7129 71.0185 74.187 71.5812 74.8546 72.3128C74.8708 72.329 74.8785 72.3452 74.9032 72.3614C74.9194 72.3852 74.9433 72.41 74.9757 72.4415C75.0396 72.5217 75.1206 72.6103 75.2008 72.6905C75.3696 72.8755 75.5461 73.0682 75.7234 73.2609C75.8437 73.3896 75.9647 73.5184 76.085 73.6471V73.6548C76.1736 73.7435 76.2615 73.8313 76.3425 73.92C76.5275 74.105 76.6963 74.2977 76.8728 74.475C77.2505 74.8689 77.612 75.239 77.9181 75.5442C78.1432 75.7693 78.3445 75.962 78.4971 76.1069C79.1562 76.7336 81.2059 78.5744 81.576 78.8805C81.9622 79.202 82.444 79.7084 83.0306 79.6283C83.0545 79.6283 83.0792 79.6206 83.0945 79.6121C83.1508 79.6044 83.1994 79.5959 83.2472 79.572C83.5771 79.4995 83.8022 79.3546 83.9549 79.1781C84.1561 78.9453 84.2286 78.6639 84.22 78.4303C84.22 78.3579 84.2124 78.2939 84.1962 78.2376C84.0512 77.5624 82.2189 74.1945 80.6193 71.4047C80.4343 71.0748 80.2416 70.7456 80.0643 70.4404C79.9756 70.2878 79.8869 70.1428 79.8068 69.9979C79.6618 69.7489 79.5254 69.5238 79.3966 69.3064C79.3966 69.3013 79.3941 69.2959 79.389 69.2902C79.3088 69.1615 79.2363 69.0327 79.1639 68.9125C79.1562 68.8963 79.1477 68.8801 79.14 68.8724C78.6975 68.1494 78.376 67.6506 78.2635 67.5304C77.7246 66.9677 76.9691 66.6462 76.1975 66.6462C74.6141 66.6462 73.3275 67.9243 73.3275 69.5162L73.3267 69.5153Z" fill="#112152"/>
<path d="M82.362 78.6307C82.3296 78.8635 82.362 79.1209 82.4822 79.3136C82.6348 79.5549 82.8599 79.6351 83.0936 79.6112C83.1498 79.6035 83.1984 79.595 83.2462 79.5711C83.5762 79.4987 83.8013 79.3537 83.9539 79.1772C84.1551 78.9445 84.2276 78.6631 84.2191 78.4295C84.1628 78.293 84.0826 78.1643 84.0102 78.0756C83.7851 77.8429 83.4636 77.7056 83.166 77.7542C83.0612 77.7704 82.9733 77.8105 82.8847 77.8591C82.6195 78.0117 82.4183 78.3007 82.362 78.6307Z" fill="#CCCCCC"/>
<path d="M74.8538 72.3128C74.87 72.329 74.8776 72.3452 74.9024 72.3614C74.9186 72.3853 74.9424 72.41 74.9748 72.4415C75.0388 72.5217 75.1198 72.6104 75.1999 72.6905C75.3687 72.8755 75.5452 73.0682 75.7226 73.2609C75.6262 73.1245 75.57 72.9471 75.5461 72.7468H75.5384C75.5222 72.6504 75.5146 72.5541 75.5146 72.4492C75.5146 72.3929 75.5146 72.329 75.5222 72.2642C75.5461 71.6776 75.7635 71.01 76.085 70.5598C76.5914 69.8521 77.3793 69.523 78.2558 69.5307C78.4084 69.5307 78.6898 69.5384 78.9874 69.6032C79.076 69.6194 79.1639 69.6432 79.2525 69.6756C79.2926 69.6833 79.325 69.6995 79.3574 69.7157C79.5262 69.7797 79.6865 69.8683 79.8076 69.9971C79.6627 69.7481 79.5262 69.523 79.3975 69.3056C79.3975 69.3005 79.3949 69.2951 79.3898 69.2894C79.3097 69.1607 79.2372 69.0319 79.1647 68.9117H79.1485C79.1409 68.9117 79.1408 68.904 79.1323 68.904C78.1032 68.43 76.8651 68.534 76.0858 69.1692C74.8563 70.1497 74.6389 71.2513 74.8563 72.3119L74.8538 72.3128Z" fill="#CCCCCC"/>
<path d="M76.084 73.6472V73.6549C76.1727 73.7436 76.2605 73.8314 76.3415 73.9201C76.5266 74.1051 76.6954 74.2978 76.8719 74.4751C76.7517 74.1613 76.7116 73.7922 76.7593 73.4221C76.7832 73.1331 76.8557 72.8432 76.9768 72.5857C77.0407 72.4331 77.1217 72.2881 77.2095 72.1594C77.6597 71.5242 78.1585 71.1303 78.8816 71.0663C78.9702 71.0501 79.0581 71.0501 79.1553 71.0501C79.3804 71.0501 80.1682 71.0425 80.6184 71.404C80.4334 71.074 80.2407 70.7449 80.0633 70.4397C79.8144 70.3595 79.533 70.3032 79.2354 70.287C79.1391 70.2794 79.0342 70.2794 78.9302 70.2794C78.85 70.2794 78.7613 70.287 78.6812 70.2956C78.0946 70.3442 77.5156 70.5283 77.114 70.8344C76.7124 71.1559 76.4311 71.5898 76.2699 72.0562C76.2299 72.1449 76.206 72.2327 76.1812 72.3291C76.1412 72.4655 76.1173 72.6104 76.1011 72.7554C76.0525 73.0606 76.0525 73.3667 76.0849 73.6472H76.084Z" fill="#CCCCCC"/>
<path d="M71.218 71.016C71.2845 71.016 71.3527 70.999 71.4149 70.964C71.6076 70.8549 71.6767 70.6102 71.5684 70.4166C71.49 70.2768 69.6883 66.9754 72.7306 64.953C75.5767 63.0602 78.0468 65.3461 78.0707 65.3699C78.231 65.5225 78.485 65.5157 78.6394 65.3546C78.792 65.1934 78.7852 64.9385 78.624 64.7859C78.595 64.7577 75.6577 62.0421 72.2863 64.2837C68.6174 66.723 70.8462 70.7704 70.8692 70.8114C70.9434 70.9418 71.079 71.0152 71.2197 71.0152L71.218 71.016Z" fill="white"/>
<path d="M72.9863 109.509C72.9624 109.447 72.942 109.385 72.924 109.321L72.9138 109.327C72.7126 108.628 72.7126 107.551 73.8696 106.392C73.9566 106.305 74.0444 106.222 74.1331 106.139C74.1655 106.108 74.1953 106.08 74.2277 106.05C74.3198 105.966 74.4145 105.884 74.5108 105.801C74.5637 105.757 74.6157 105.713 74.6677 105.668C74.7547 105.596 74.8425 105.525 74.9312 105.455C75.198 105.244 75.4735 105.043 75.7548 104.846C75.9381 104.719 76.1206 104.595 76.3073 104.475C76.4199 104.4 76.5341 104.325 76.6467 104.256C76.7575 104.186 76.8675 104.115 76.9801 104.047C76.9963 104.036 77.0099 104.029 77.0261 104.018C77.1267 103.956 77.2308 103.892 77.3314 103.832C77.4405 103.765 77.5488 103.699 77.6571 103.635C77.8924 103.491 78.1252 103.354 78.358 103.209H78.3656C79 102.838 79.6506 102.452 80.2696 102.042C80.5347 101.873 80.7922 101.704 81.0412 101.512C81.1538 101.439 81.2663 101.359 81.3806 101.27C81.4633 101.21 81.5434 101.148 81.6219 101.084C81.696 101.026 81.7711 100.968 81.841 100.907C81.8512 100.899 81.8632 100.889 81.8734 100.881C81.9433 100.82 82.0141 100.762 82.0823 100.7C82.1565 100.636 82.2272 100.57 82.2972 100.506L82.3014 100.501C82.3705 100.437 82.4361 100.374 82.5027 100.307C82.5709 100.241 82.6357 100.174 82.6996 100.106C82.7636 100.039 82.8258 99.9711 82.888 99.9029C82.9204 99.8688 82.9503 99.8347 82.9784 99.8006C83.0088 99.7685 83.0355 99.7365 83.0634 99.7031L83.0688 99.6966C83.1353 99.6181 83.1975 99.5397 83.2598 99.4613L83.2598 99.4612C83.3101 99.399 83.3604 99.3342 83.4065 99.2702C83.5693 99.0554 83.7177 98.8346 83.8567 98.6095C83.9053 98.531 83.9513 98.4526 83.9973 98.3724C84.0016 98.3665 84.0033 98.3605 84.0076 98.3545C84.08 98.2266 84.1466 98.0979 84.2105 97.9691C84.2446 97.9026 84.2753 97.8387 84.3051 97.7722C84.3375 97.7083 84.3656 97.6418 84.3938 97.5754L84.3938 97.5752C84.4339 97.4866 84.4723 97.3962 84.5064 97.3058C84.52 97.2717 84.5345 97.235 84.5464 97.1992C84.5891 97.0943 84.6274 96.9878 84.6632 96.8795C84.7443 96.6442 84.8142 96.4054 84.8764 96.1641C84.8986 96.084 84.919 96.0038 84.9369 95.9211C84.977 95.7591 85.0111 95.5946 85.041 95.4275C85.0597 95.3405 85.0759 95.2527 85.0896 95.164C85.0938 95.1418 85.0981 95.1222 85.0998 95.1001C85.1111 95.0357 85.1208 94.969 85.1305 94.903L85.1322 94.8912C85.1441 94.8213 85.1518 94.7522 85.162 94.6823C85.1808 94.5416 85.197 94.3992 85.2107 94.2585C85.2124 94.2389 85.2149 94.2167 85.2166 94.1946C85.2245 94.1315 85.2302 94.0661 85.2357 94.0027L85.2371 93.9874C85.2413 93.9354 85.2448 93.8825 85.249 93.8305C85.255 93.7717 85.2592 93.7154 85.261 93.6574C85.2652 93.6054 85.2695 93.5508 85.2712 93.4988C85.2814 93.336 85.2891 93.1714 85.2951 93.0069C85.2951 92.9924 85.2968 92.9762 85.2968 92.9625C85.3002 92.8363 85.3044 92.7093 85.3044 92.5831C85.3087 92.4902 85.3087 92.3964 85.3087 92.3018C85.3172 91.4943 85.2891 90.6707 85.2507 89.8394C85.2413 89.6169 85.2285 89.396 85.2149 89.1769C85.2089 89.0788 85.2004 88.9799 85.1944 88.8819C85.1842 88.7318 85.1723 88.5826 85.1603 88.4343C85.1441 88.2399 85.1288 88.0446 85.1083 87.8519C85.1041 87.7956 85.0981 87.7377 85.0921 87.6814L85.0921 87.6812C85.0785 87.5466 85.0648 87.4119 85.0504 87.2798C85.0486 87.2636 85.0461 87.25 85.0444 87.2338C85.0299 87.1093 85.0162 86.9891 85 86.8663C84.9864 86.7461 84.9702 86.6233 84.954 86.5031C84.9421 86.4033 84.9284 86.3027 84.9122 86.2021C84.8909 86.041 84.8662 85.8824 84.8423 85.7238C84.8159 85.555 84.7894 85.3887 84.7596 85.2216C84.7553 85.2003 84.7519 85.1798 84.7477 85.1576C84.7434 85.1193 84.7374 85.0826 84.7298 85.0468C84.7272 85.0391 84.7272 85.0306 84.7255 85.0229C84.6991 84.8686 84.6709 84.716 84.6411 84.5651C84.6274 84.4866 84.6129 84.4107 84.595 84.334C84.5925 84.3255 84.5925 84.3195 84.5908 84.3118C84.5712 84.2053 84.549 84.0987 84.5268 83.9947C84.5251 83.993 84.5251 83.9904 84.5251 83.9887C84.503 83.8685 84.4765 83.75 84.4484 83.6314L84.4483 83.6309C84.4142 83.4801 84.3801 83.3294 84.3444 83.1813C84.3444 83.177 84.3427 83.1753 84.3427 83.171C84.3409 83.1548 84.3367 83.1412 84.3307 83.125C84.3239 83.0994 84.3179 83.0713 84.3103 83.0448C84.2761 82.8888 84.2361 82.7336 84.196 82.5793C84.1917 82.5648 84.1883 82.5495 84.1841 82.535C84.1772 82.5085 84.1696 82.483 84.1636 82.4565C84.1261 82.3056 84.0852 82.1573 84.0434 82.0106C84.0297 81.956 84.0135 81.9023 83.9973 81.8477L83.9908 81.8249C83.9444 81.6639 83.8987 81.5051 83.8507 81.3456C83.8447 81.3276 83.8405 81.3114 83.8345 81.2935C83.7799 81.1171 83.7236 80.9423 83.6657 80.7692C83.6256 80.6421 83.5812 80.516 83.5369 80.3915C83.4431 80.1169 83.3442 79.8458 83.2419 79.5764C83.1532 79.3112 83.0492 79.046 82.9366 78.7809C82.848 78.572 82.9443 78.3392 83.1532 78.2505C83.3536 78.1695 83.5864 78.2659 83.675 78.4671C83.7714 78.7007 83.8677 78.9412 83.9479 79.1824C84.0204 79.3658 84.0886 79.5499 84.1568 79.735C84.173 79.7793 84.1892 79.8236 84.2054 79.8697C84.2455 79.9797 84.2864 80.0922 84.3222 80.2048C84.3546 80.2934 84.3844 80.3812 84.4126 80.4699C84.4646 80.6268 84.5166 80.7828 84.5652 80.9397C84.5771 80.9798 84.5916 81.0199 84.6036 81.0599C84.6522 81.2125 84.6982 81.3652 84.7425 81.5195C84.7443 81.5272 84.7468 81.5357 84.7485 81.5434C84.7741 81.632 84.7988 81.7182 84.8227 81.8068C84.8466 81.8938 84.8713 81.9816 84.8952 82.0703C84.8994 82.0822 84.9028 82.0967 84.9071 82.1104C84.9088 82.118 84.9114 82.1249 84.9131 82.1325C84.9472 82.2613 84.9813 82.3943 85.0137 82.5264C85.0359 82.6049 85.0538 82.6833 85.0742 82.7618C85.0759 82.7737 85.0802 82.7856 85.0819 82.7976C85.1075 82.9024 85.1322 83.0065 85.1561 83.113C85.1578 83.1233 85.162 83.1352 85.1638 83.1454C85.1793 83.2012 85.191 83.2577 85.2025 83.3136L85.2038 83.3202C85.2064 83.3262 85.2064 83.3322 85.2081 83.3381C85.232 83.4405 85.2541 83.5394 85.2763 83.6417C85.278 83.6536 85.2823 83.6681 85.284 83.68C85.3181 83.8446 85.3522 84.0091 85.3846 84.1737C85.388 84.1856 85.3906 84.1976 85.3923 84.2095C85.4306 84.3997 85.4664 84.5932 85.5006 84.7876C85.5082 84.826 85.5167 84.8635 85.5227 84.9018C85.5594 85.115 85.5952 85.3299 85.6293 85.5464C85.6651 85.7732 85.6975 86 85.7316 86.2294V86.2354C85.7598 86.4442 85.7853 86.6531 85.8118 86.8637C85.816 86.9021 85.822 86.9396 85.8237 86.978C85.8271 87.0181 85.8331 87.0607 85.8373 87.1008C85.8595 87.279 85.8774 87.458 85.8953 87.6388C85.9192 87.8758 85.9414 88.1128 85.9593 88.3541C85.9772 88.5732 85.9951 88.7966 86.0096 89.0192C86.0138 89.0771 86.0155 89.136 86.0198 89.1939C86.0333 89.3962 86.0434 89.5993 86.0536 89.8016L86.0539 89.8087C86.0957 90.7363 86.1255 91.6563 86.1119 92.5584L86.1059 92.8653C86.1042 92.9174 86.1017 92.9694 86.1 93.0197C86.1 93.0435 86.1 93.0657 86.0982 93.0879C86.0982 93.0998 86.0965 93.1143 86.0965 93.1262C86.0923 93.2047 86.0906 93.2806 86.0863 93.359C86.0803 93.498 86.0727 93.6361 86.0624 93.7751V93.7768C86.0607 93.799 86.0582 93.8186 86.0565 93.8407C86.0479 93.9473 86.0403 94.0539 86.03 94.1605C86.03 94.1673 86.03 94.1707 86.0283 94.175C86.0164 94.3071 86.0019 94.4384 85.9883 94.5706C85.9738 94.6951 85.9576 94.8196 85.9397 94.9423C85.926 95.0361 85.9141 95.1291 85.8979 95.2211C85.8817 95.3141 85.8655 95.4062 85.8493 95.4965C85.8169 95.6773 85.7802 95.8563 85.7384 96.0328C85.7384 96.0345 85.7384 96.0388 85.7367 96.0405C85.7129 96.1488 85.6864 96.2571 85.6583 96.3636L85.658 96.3652C85.6564 96.3742 85.6546 96.3838 85.6506 96.3935C85.6208 96.5137 85.5867 96.6305 85.5526 96.749C85.5244 96.8479 85.4929 96.9443 85.4605 97.0406C85.4426 97.0986 85.423 97.1549 85.4025 97.2112C85.3761 97.2913 85.3479 97.3697 85.3181 97.4482C85.2601 97.6025 85.1979 97.7551 85.1313 97.906C85.1313 97.9078 85.1296 97.9103 85.1296 97.912L85.1296 97.9121C85.1015 97.9743 85.0733 98.0365 85.0435 98.0987C85.0111 98.1695 84.9753 98.242 84.9412 98.3119C84.9105 98.3741 84.879 98.4364 84.8466 98.4986C84.8449 98.5003 84.8449 98.5029 84.8449 98.5046C84.7843 98.6171 84.7221 98.7271 84.6598 98.838L84.6597 98.8382C84.6214 98.9046 84.5831 98.971 84.543 99.0349C84.485 99.1313 84.4228 99.2251 84.3606 99.3197C84.3367 99.3555 84.3128 99.3922 84.2864 99.428C84.242 99.4928 84.1977 99.5567 84.1517 99.619C84.1278 99.6505 84.1031 99.6846 84.0792 99.717C84.0766 99.7187 84.0749 99.7213 84.0749 99.723L84.0643 99.7369C83.9972 99.8251 83.9306 99.9125 83.8618 99.9984C83.7876 100.092 83.7091 100.185 83.629 100.277C83.6213 100.287 83.6128 100.295 83.6051 100.305L83.4602 100.468C83.3459 100.594 83.2274 100.721 83.1029 100.843C83.0586 100.889 83.0142 100.934 82.9682 100.975C82.9341 101.01 82.9 101.041 82.8659 101.074C82.8053 101.13 82.7448 101.188 82.6809 101.244C82.625 101.295 82.5691 101.344 82.512 101.394L82.4924 101.411C82.3961 101.493 82.298 101.576 82.1974 101.656C82.0969 101.738 81.9947 101.816 81.8925 101.894L81.8922 101.895L81.876 101.911C81.6355 102.095 81.3857 102.271 81.135 102.433C80.944 102.563 80.7496 102.692 80.5544 102.816C80.3822 102.927 80.2074 103.035 80.0327 103.144L80.0325 103.144C79.6591 103.373 79.2839 103.598 78.9122 103.821C78.8653 103.849 78.8192 103.877 78.7732 103.905C78.7254 103.929 78.6854 103.961 78.6368 103.985C78.404 104.122 78.1627 104.267 77.9299 104.403C77.7978 104.484 77.6647 104.564 77.5326 104.644C77.3518 104.755 77.1728 104.868 76.9963 104.982C76.8419 105.08 76.6893 105.181 76.5384 105.283C76.3883 105.385 76.2374 105.489 76.0908 105.594C75.9441 105.696 75.7975 105.805 75.6551 105.916C75.5127 106.024 75.372 106.135 75.2356 106.249C75.1674 106.305 75.0991 106.364 75.0309 106.422C74.9849 106.462 74.9363 106.504 74.8902 106.547C74.8144 106.612 74.7402 106.681 74.6677 106.751C74.5935 106.819 74.521 106.888 74.4511 106.96C73.7264 107.675 73.4851 108.374 73.694 109.097C73.7084 109.147 73.7263 109.197 73.7441 109.247L73.7443 109.248C73.7605 109.294 73.7801 109.34 73.8006 109.384C73.8227 109.434 73.8483 109.484 73.8747 109.532C73.879 109.541 73.8824 109.551 73.8867 109.559C73.8969 109.578 73.9071 109.595 73.9191 109.613C73.9208 109.615 73.9233 109.619 73.9251 109.621C73.9387 109.645 73.9506 109.67 73.9668 109.694C73.9967 109.744 74.0291 109.792 74.0632 109.84C74.0956 109.888 74.1314 109.937 74.1698 109.983C74.2337 110.065 74.3045 110.15 74.3787 110.23C74.4128 110.267 74.4469 110.305 74.4852 110.341C74.5253 110.383 74.5654 110.423 74.6097 110.463C74.6651 110.516 74.7227 110.568 74.782 110.622L74.7905 110.63C74.8288 110.661 74.8689 110.695 74.909 110.728C74.9653 110.776 75.0241 110.822 75.0821 110.867C75.1324 110.907 75.1861 110.947 75.2407 110.985C75.285 111.019 75.3311 111.051 75.3771 111.083C75.4692 111.15 75.5655 111.214 75.6619 111.274C75.7079 111.304 75.7557 111.335 75.8043 111.365C75.8418 111.387 75.8802 111.411 75.9185 111.433C75.9748 111.467 76.0336 111.501 76.0916 111.534C76.1288 111.555 76.1677 111.576 76.205 111.596L76.2084 111.597C76.2707 111.632 76.3346 111.666 76.3969 111.698C76.4898 111.748 76.5836 111.794 76.6782 111.839C76.7268 111.863 76.7763 111.887 76.8249 111.909C77.0099 111.995 77.1949 112.073 77.3774 112.146L77.3919 112.151C77.4475 112.173 77.5025 112.195 77.5582 112.214C77.6784 112.258 77.7969 112.3 77.9154 112.338C78.0322 112.379 78.1465 112.413 78.259 112.443C78.3153 112.458 78.369 112.473 78.4236 112.488H78.4279C78.4279 112.488 78.4304 112.489 78.4321 112.489C78.4884 112.503 78.5447 112.517 78.5992 112.529C79.1543 112.657 79.7324 112.746 80.3028 112.842C81.6781 113.067 83.0927 113.301 84.3699 113.975C84.4288 114.008 84.4867 114.039 84.543 114.072C84.5771 114.09 84.6112 114.11 84.6436 114.132C84.676 114.15 84.7084 114.17 84.7383 114.19C84.7784 114.215 84.8167 114.241 84.8551 114.267C84.9059 114.301 84.952 114.333 85.0002 114.368L85.006 114.372C85.0648 114.415 85.1228 114.46 85.1791 114.504C85.2413 114.554 85.3002 114.605 85.3582 114.655C85.4809 114.763 85.5969 114.876 85.7077 114.993C85.7538 115.041 85.7981 115.089 85.8399 115.139C85.8979 115.206 85.9542 115.272 86.0087 115.34C86.0411 115.382 86.0735 115.423 86.1034 115.465C86.152 115.529 86.198 115.594 86.2423 115.658C86.2867 115.722 86.331 115.786 86.3711 115.852C86.3975 115.892 86.424 115.935 86.4478 115.975C86.4538 115.987 86.4598 115.997 86.4657 116.009C86.4854 116.04 86.5058 116.075 86.5237 116.107C86.5553 116.163 86.586 116.22 86.6158 116.276C86.6422 116.324 86.6687 116.374 86.6925 116.424C86.7454 116.531 86.7949 116.637 86.8435 116.746C86.8631 116.79 86.881 116.834 86.9014 116.879C86.9057 116.888 86.9091 116.898 86.9134 116.908C86.9552 117.011 86.9961 117.113 87.0319 117.215C87.0438 117.244 87.0541 117.272 87.0643 117.302L87.0749 117.333C87.0995 117.405 87.1239 117.476 87.147 117.549C87.1777 117.639 87.2033 117.73 87.2297 117.818C87.1062 118.3 86.6367 118.097 86.4174 117.935C85.9305 116.341 85.1412 115.289 84.0007 114.684C83.8805 114.62 83.7577 114.562 83.6333 114.507C83.5961 114.489 83.5583 114.473 83.521 114.457L83.5071 114.451C83.4453 114.425 83.3836 114.401 83.3204 114.377L83.3058 114.371C83.1813 114.322 83.0569 114.279 82.9307 114.236C82.8757 114.217 82.8225 114.201 82.7686 114.183L82.7397 114.174C82.6212 114.138 82.5044 114.104 82.3841 114.072C82.1752 114.015 81.9621 113.965 81.7472 113.919C81.7412 113.917 81.7353 113.917 81.7293 113.915C81.6108 113.888 81.4897 113.865 81.3695 113.842C81.2731 113.822 81.1742 113.804 81.0762 113.788C80.9391 113.762 80.8029 113.74 80.6666 113.718L80.6661 113.718C80.5015 113.69 80.3369 113.664 80.1741 113.638C79.596 113.541 79.0008 113.445 78.4228 113.316C78.381 113.306 78.3366 113.296 78.2923 113.284C78.2505 113.274 78.2045 113.262 78.1601 113.25C78.1158 113.238 78.0698 113.226 78.0254 113.214C77.9785 113.2 77.9325 113.186 77.8864 113.171C77.7739 113.139 77.6579 113.101 77.5411 113.061C77.4439 113.028 77.3476 112.994 77.2495 112.958C77.2495 112.958 77.2495 112.957 77.2478 112.957C77.1455 112.918 77.0406 112.878 76.9366 112.834C76.8522 112.8 76.7661 112.764 76.6816 112.725C76.4506 112.625 76.2178 112.512 75.9867 112.392H75.985C75.8921 112.343 75.8017 112.293 75.7096 112.241C75.6295 112.197 75.5493 112.148 75.4709 112.102C75.4666 112.101 75.4649 112.098 75.4607 112.096C75.459 112.095 75.4547 112.092 75.453 112.09C75.372 112.042 75.2961 111.994 75.2177 111.945C75.1332 111.891 75.0505 111.837 74.9704 111.782C74.8101 111.67 74.6515 111.553 74.5006 111.433C74.4264 111.372 74.3522 111.31 74.2797 111.248C74.2073 111.186 74.1391 111.123 74.0709 111.059C74.0171 111.007 73.9626 110.955 73.9106 110.901C73.8577 110.849 73.8082 110.795 73.7596 110.741C73.711 110.689 73.665 110.635 73.6207 110.58C73.613 110.572 73.6045 110.564 73.5985 110.554C73.5584 110.505 73.52 110.455 73.4842 110.407C73.4015 110.296 73.3248 110.184 73.2549 110.07C73.2532 110.065 73.2506 110.062 73.2489 110.058C73.2174 110.004 73.185 109.948 73.1568 109.893C73.1491 109.879 73.1406 109.863 73.1329 109.847C73.1125 109.809 73.0946 109.769 73.0767 109.73C73.0681 109.712 73.0579 109.693 73.0502 109.672C73.0281 109.618 73.0068 109.564 72.9863 109.509Z" fill="#112152"/>
</svg>
