<svg width="192" height="192" viewBox="0 0 192 192" fill="none" xmlns="http://www.w3.org/2000/svg">
<path d="M118.307 74.6279C118.684 75.6127 118.873 76.7663 118.873 78.0887C118.873 79.4111 118.684 80.5646 118.307 81.5494C117.929 82.5342 117.406 83.3079 116.738 83.8706C116.099 84.4052 115.358 84.6725 114.516 84.6725C113.645 84.6725 112.875 84.4052 112.207 83.8706C111.539 83.3079 111.016 82.5342 110.638 81.5494C110.29 80.5646 110.115 79.4111 110.115 78.0887C110.115 76.7663 110.29 75.6127 110.638 74.6279C111.016 73.6431 111.539 72.8694 112.207 72.3067C112.875 71.7439 113.645 71.4626 114.516 71.4626C115.358 71.4626 116.099 71.7439 116.738 72.3067C117.406 72.8694 117.929 73.6431 118.307 74.6279Z" fill="#112152"/>
<path fill-rule="evenodd" clip-rule="evenodd" d="M136.135 46.4697C108.331 43.0568 96.4279 27.6855 96.4279 27.6855C96.4279 27.6855 84.5246 43.0568 56.7193 46.464V81.0528C56.7193 98.5568 64.4088 110.086 96.4264 128.45C128.444 110.09 136.135 98.5683 136.135 81.0586V46.4697ZM124.406 84.7147C125.394 82.7733 125.888 80.5646 125.888 78.0887C125.888 75.6127 125.394 73.4181 124.406 71.5048C123.419 69.5634 122.068 68.044 120.354 66.9467C118.641 65.8213 116.695 65.2586 114.516 65.2586C112.367 65.2586 110.42 65.8213 108.678 66.9467C106.964 68.044 105.613 69.5634 104.626 71.5048C103.638 73.4181 103.144 75.6127 103.144 78.0887C103.144 80.5646 103.638 82.7733 104.626 84.7147C105.613 86.628 106.964 88.1333 108.678 89.2306C110.42 90.3279 112.367 90.8765 114.516 90.8765C116.695 90.8765 118.641 90.3279 120.354 89.2306C122.068 88.1333 123.419 86.628 124.406 84.7147ZM66.9665 90.4545C66.9665 89.1321 67.0681 87.9504 67.2715 86.9093C67.5038 85.8683 67.8669 84.9257 68.3607 84.0817C68.8836 83.2094 69.5662 82.4076 70.4085 81.676C71.2799 80.9163 72.3692 80.1989 73.6763 79.5236C75.0415 78.8202 76.1743 78.2293 77.0747 77.751C78.0042 77.2446 78.7449 76.8225 79.2968 76.4849C79.8487 76.1473 80.2263 75.8237 80.4296 75.5142C80.662 75.1766 80.7782 74.8108 80.7782 74.4169C80.7782 73.8823 80.6475 73.4181 80.386 73.0241C80.1246 72.6302 79.747 72.3348 79.2532 72.1379C78.7595 71.9128 78.1494 71.8002 77.4233 71.8002C76.8423 71.8002 76.2905 71.8706 75.7676 72.0112C75.2448 72.1519 74.7365 72.3629 74.2427 72.6443C73.7779 72.9257 73.3277 73.2633 72.892 73.6572C72.4563 74.023 72.0206 74.445 71.5849 74.9233L67.1843 69.9432C67.6781 69.4649 68.3026 68.9866 69.0578 68.5083C69.8421 68.03 70.728 67.6079 71.7156 67.2422C72.7032 66.8483 73.7779 66.5388 74.9398 66.3137C76.1307 66.0604 77.3652 65.9338 78.6432 65.9338C80.7346 65.9338 82.4919 66.2433 83.9152 66.8623C85.3676 67.4532 86.4713 68.2973 87.2265 69.3946C87.9818 70.4919 88.3594 71.7862 88.3594 73.2774C88.3594 74.234 88.1996 75.0781 87.8801 75.8096C87.5896 76.513 87.1975 77.1461 86.7037 77.7088C86.2099 78.2715 85.6435 78.778 85.0045 79.2282C84.3945 79.6784 83.7845 80.0863 83.1745 80.4521C82.4774 80.7897 81.8239 81.1274 81.2139 81.465C80.6039 81.7745 80.0375 82.084 79.5147 82.3935C78.9918 82.6748 78.498 82.9843 78.0333 83.322C77.5976 83.6315 77.1764 83.9832 76.7698 84.3771H88.8386V90.4545H66.9665ZM93.0683 90.4545V83.5752H98.776V90.4545H93.0683Z" fill="#112152"/>
<path fill-rule="evenodd" clip-rule="evenodd" d="M29.5249 142.917C31.2098 142.878 32.8838 143.199 34.4358 143.861C35.7637 144.416 36.8913 145.367 37.668 146.585C38.4446 147.803 38.8332 149.232 38.7816 150.678C38.8171 152.129 38.4234 153.559 37.6504 154.784C36.8603 155.973 35.7433 156.905 34.4358 157.466C32.8838 158.127 31.2098 158.449 29.5249 158.409H25.8954V163.893H20.0003V142.917H29.5249ZM29.168 153.736C30.1456 153.808 31.1166 153.526 31.9064 152.942C32.2195 152.659 32.4651 152.308 32.6249 151.917C32.7847 151.525 32.8546 151.102 32.8293 150.679C32.8536 150.254 32.7833 149.829 32.6237 149.435C32.464 149.041 32.219 148.688 31.9064 148.401C31.1208 147.807 30.1479 147.52 29.168 147.592H25.8954V153.736H29.168ZM54.5557 159.818H45.7458L44.1091 163.893H38.0964L47.2935 142.917H53.0963L62.3228 163.893H56.1924L54.5557 159.818ZM52.8292 155.443L50.1504 148.73L47.4715 155.443H52.8292ZM73.8418 156.372V163.895H67.9459V156.284L59.9969 142.918H66.217L71.1574 151.249L76.1041 142.917H81.8186L73.8418 156.372ZM99.2295 152.956C100.335 153.315 101.31 153.999 102.028 154.918C102.715 155.847 103.072 156.982 103.039 158.14C103.072 158.981 102.886 159.816 102.499 160.562C102.113 161.308 101.54 161.94 100.837 162.395C99.3683 163.394 97.2451 163.893 94.4672 163.893H83.2169V142.917H93.8686C96.5273 142.917 98.5512 143.412 99.9401 144.4C100.596 144.835 101.132 145.43 101.496 146.13C101.861 146.83 102.042 147.612 102.024 148.402C102.038 149.348 101.785 150.278 101.295 151.084C100.792 151.889 100.077 152.537 99.2295 152.957V152.956ZM89.0507 147.203V151.249H93.0984C95.0825 151.249 96.0745 150.57 96.0745 149.211C96.0745 147.873 95.0825 147.203 93.0984 147.203H89.0507ZM93.991 159.608C96.0546 159.608 97.0864 158.899 97.0864 157.481C97.0864 156.063 96.0546 155.354 93.991 155.354H89.0507V159.609L93.991 159.608ZM120.064 159.818H111.254L109.617 163.893H103.605L112.803 142.917H118.605L127.832 163.893H121.701L120.064 159.818ZM118.337 155.443L115.659 148.73L112.98 155.443H118.337ZM139.588 164.313C137.545 164.346 135.525 163.867 133.71 162.919C132.017 162.031 130.6 160.687 129.618 159.038C128.614 157.335 128.099 155.385 128.13 153.405C128.099 151.425 128.614 149.475 129.618 147.771C130.6 146.122 132.017 144.779 133.71 143.891C135.524 142.942 137.544 142.463 139.588 142.496C141.356 142.47 143.109 142.817 144.734 143.517C146.224 144.167 147.532 145.175 148.544 146.453L144.794 149.869C144.219 149.107 143.477 148.488 142.625 148.062C141.774 147.636 140.836 147.414 139.885 147.413C138.831 147.394 137.789 147.652 136.864 148.162C135.991 148.651 135.278 149.385 134.81 150.275C134.311 151.241 134.06 152.318 134.081 153.407C134.06 154.495 134.311 155.572 134.81 156.538C135.278 157.428 135.991 158.162 136.864 158.651C137.789 159.161 138.831 159.419 139.885 159.4C140.836 159.4 141.775 159.178 142.627 158.751C143.479 158.325 144.221 157.706 144.796 156.943L148.546 160.359C147.534 161.637 146.226 162.646 144.736 163.295C143.11 163.994 141.356 164.341 139.588 164.313V164.313ZM159.201 156.283L156.999 158.65V163.894H151.165V142.917H156.999V151.641L165.064 142.917H171.552L163.041 152.207L172 163.892H165.155L159.201 156.283Z" fill="#112152"/>
</svg>
